<svg xmlns="http://www.w3.org/2000/svg" xmlns:xlink="http://www.w3.org/1999/xlink" width="1920" zoomAndPan="magnify" viewBox="0 0 1440 809.999993" height="1080" preserveAspectRatio="xMidYMid meet" version="1.0"><defs><g/><clipPath id="a55841551e"><path d="M 489.234375 157.289062 L 902 157.289062 L 902 409.867188 L 489.234375 409.867188 Z M 489.234375 157.289062 " clip-rule="nonzero"/></clipPath><clipPath id="ce373cca62"><path d="M 511.84375 191.691406 L 675.082031 191.691406 L 675.082031 245.914062 L 511.84375 245.914062 Z M 511.84375 191.691406 " clip-rule="nonzero"/></clipPath><clipPath id="12241027e5"><path d="M 511.84375 256.863281 L 616.59375 256.863281 L 616.59375 311.085938 L 511.84375 311.085938 Z M 511.84375 256.863281 " clip-rule="nonzero"/></clipPath><clipPath id="962b6c2a81"><path d="M 511.84375 322.335938 L 564.21875 322.335938 L 564.21875 376.558594 L 511.84375 376.558594 Z M 511.84375 322.335938 " clip-rule="nonzero"/></clipPath><clipPath id="e6878f569c"><path d="M 1062.835938 388.539062 L 1083.835938 388.539062 L 1083.835938 409.539062 L 1062.835938 409.539062 Z M 1062.835938 388.539062 " clip-rule="nonzero"/></clipPath></defs><g clip-path="url(#a55841551e)"><path fill="#f50303" d="M 489.234375 157.289062 L 901.644531 157.289062 L 901.644531 409.867188 L 489.234375 409.867188 Z M 489.234375 157.289062 " fill-opacity="1" fill-rule="nonzero"/></g><g clip-path="url(#ce373cca62)"><path fill="#ffffff" d="M 511.84375 191.691406 L 675.144531 191.691406 L 675.144531 245.914062 L 511.84375 245.914062 Z M 511.84375 191.691406 " fill-opacity="1" fill-rule="nonzero"/></g><g clip-path="url(#12241027e5)"><path fill="#ffffff" d="M 511.84375 256.863281 L 616.6875 256.863281 L 616.6875 311.085938 L 511.84375 311.085938 Z M 511.84375 256.863281 " fill-opacity="1" fill-rule="nonzero"/></g><g clip-path="url(#962b6c2a81)"><path fill="#ffffff" d="M 511.84375 322.335938 L 564.21875 322.335938 L 564.21875 376.550781 L 511.84375 376.550781 Z M 511.84375 322.335938 " fill-opacity="1" fill-rule="nonzero"/></g><g clip-path="url(#e6878f569c)"><path fill="#000000" d="M 1073.335938 388.539062 C 1067.550781 388.539062 1062.835938 393.253906 1062.835938 399.039062 C 1062.835938 404.824219 1067.550781 409.539062 1073.335938 409.539062 C 1079.125 409.539062 1083.835938 404.824219 1083.835938 399.039062 C 1083.835938 393.253906 1079.125 388.539062 1073.335938 388.539062 Z M 1073.335938 390.640625 C 1077.988281 390.640625 1081.738281 394.386719 1081.738281 399.039062 C 1081.738281 403.691406 1077.988281 407.4375 1073.335938 407.4375 C 1068.6875 407.4375 1064.9375 403.691406 1064.9375 399.039062 C 1064.9375 394.386719 1068.6875 390.640625 1073.335938 390.640625 Z M 1073.335938 393.796875 C 1071.992188 393.796875 1070.648438 394.308594 1069.625 395.328125 C 1067.585938 397.367188 1067.585938 400.710938 1069.625 402.75 C 1071.667969 404.792969 1075.007812 404.792969 1077.050781 402.75 L 1075.566406 401.265625 C 1074.328125 402.503906 1072.347656 402.503906 1071.109375 401.265625 C 1069.871094 400.027344 1069.871094 398.050781 1071.109375 396.8125 C 1072.347656 395.574219 1074.328125 395.574219 1075.566406 396.8125 L 1077.050781 395.328125 C 1076.027344 394.308594 1074.683594 393.796875 1073.335938 393.796875 Z M 1073.335938 393.796875 " fill-opacity="1" fill-rule="nonzero"/></g><g fill="#000000" fill-opacity="1"><g transform="translate(307.170199, 581.346422)"><g><path d="M 40.640625 0 L 40.640625 -52.796875 L 98.96875 -52.796875 L 98.96875 -73.5625 L 40.640625 -73.5625 L 40.640625 -112.421875 L 108.171875 -112.421875 L 108.171875 -134.46875 L 16.015625 -134.46875 L 16.015625 0 Z M 40.640625 0 "/></g></g></g><g fill="#000000" fill-opacity="1"><g transform="translate(421.072963, 581.346422)"><g><path d="M 59.71875 3.0625 C 86.609375 3.0625 107.375 -11.171875 107.375 -47.359375 L 107.375 -101.640625 L 83.546875 -101.640625 L 83.546875 -48.046875 C 83.546875 -29.46875 75.640625 -19.1875 59.625 -19.1875 C 43.703125 -19.1875 35.59375 -29.265625 35.59375 -48.046875 L 35.59375 -101.640625 L 11.859375 -101.640625 L 11.859375 -47.359375 C 11.859375 -11.171875 32.53125 3.0625 59.71875 3.0625 Z M 59.71875 3.0625 "/></g></g></g><g fill="#000000" fill-opacity="1"><g transform="translate(540.314919, 581.346422)"><g><path d="M 37.96875 0 L 37.96875 -139.3125 L 14.046875 -139.3125 L 14.046875 0 Z M 37.96875 0 "/></g></g></g><g fill="#000000" fill-opacity="1"><g transform="translate(592.22373, 581.346422)"><g><path d="M 37.96875 0 L 37.96875 -139.3125 L 14.046875 -139.3125 L 14.046875 0 Z M 37.96875 0 "/></g></g></g><g fill="#000000" fill-opacity="1"><g transform="translate(644.132542, 581.346422)"><g><path d="M 76.53125 0 L 76.53125 -19.875 L 60.8125 -19.875 C 53.203125 -19.875 46.078125 -23.328125 46.078125 -37.578125 L 46.078125 -81.078125 L 76.53125 -81.078125 L 76.53125 -101.640625 L 46.078125 -101.640625 L 46.078125 -131.609375 L 22.15625 -131.40625 L 22.15625 -101.640625 L 1.09375 -101.640625 L 1.09375 -81.078125 L 22.15625 -81.078125 L 22.15625 -38.65625 C 22.15625 -5.140625 40.546875 0 55.859375 0 Z M 76.53125 0 "/></g></g></g><g fill="#000000" fill-opacity="1"><g transform="translate(726.000153, 581.346422)"><g><path d="M 25.8125 -117.46875 C 35.5 -117.46875 40.9375 -123.5 40.9375 -131.203125 C 40.9375 -138.625 35.5 -144.859375 25.90625 -144.859375 C 16.515625 -144.859375 11.078125 -138.625 11.078125 -131.203125 C 11.078125 -123.59375 16.609375 -117.46875 25.8125 -117.46875 Z M 37.96875 0 L 37.96875 -101.640625 L 14.046875 -101.640625 L 14.046875 0 Z M 37.96875 0 "/></g></g></g><g fill="#000000" fill-opacity="1"><g transform="translate(777.908965, 581.346422)"><g><path d="M 138.625 -104.703125 C 124.09375 -104.703125 111.734375 -97.390625 103.03125 -81.765625 C 97.390625 -96.703125 86.125 -104.703125 69.109375 -104.703125 C 54.078125 -104.703125 41.921875 -96.609375 36.6875 -85.828125 L 36.390625 -101.640625 L 14.046875 -101.640625 L 14.046875 0 L 37.671875 0 L 37.671875 -51.90625 C 37.671875 -70.203125 49.34375 -82.65625 62.1875 -82.65625 C 75.25 -82.65625 83.546875 -74.359375 83.546875 -54.28125 L 83.546875 0 L 107.1875 0 L 107.1875 -51.90625 C 107.1875 -70.203125 118.953125 -82.65625 131.703125 -82.65625 C 144.859375 -82.65625 153.15625 -74.359375 153.15625 -54.28125 L 153.15625 0 L 176.796875 0 L 176.796875 -54.78125 C 176.796875 -86.71875 164.140625 -104.703125 138.625 -104.703125 Z M 138.625 -104.703125 "/></g></g></g><g fill="#000000" fill-opacity="1"><g transform="translate(967.944648, 581.346422)"><g><path d="M 110.75 -52.609375 C 110.75 -80.578125 90.171875 -104.703125 59.53125 -104.703125 C 28.96875 -104.703125 6.828125 -80.484375 6.828125 -50.828125 C 6.828125 -21.15625 28.96875 3.0625 59.53125 3.0625 C 84.84375 3.0625 102.9375 -13.640625 108.078125 -31.9375 L 81.96875 -31.9375 C 78.515625 -23.328125 71.09375 -18.296875 59.03125 -18.296875 C 44.984375 -18.296875 33.328125 -27.890625 30.84375 -44.5 L 110.25 -44.5 C 110.640625 -48.25 110.75 -50.03125 110.75 -52.609375 Z M 31.84375 -62.984375 C 35.890625 -77.328125 47.359375 -83.84375 59.421875 -83.84375 C 73.46875 -83.84375 85.328125 -74.359375 86.3125 -62.984375 Z M 31.84375 -62.984375 "/></g></g></g><g fill="#000000" fill-opacity="1"><g transform="translate(892.794689, 454.025375)"><g><path d="M 26.28125 0 L 15.484375 -25.984375 L 10.96875 -25.984375 L 0.171875 0 L 5.1875 0 L 7.25 -5.015625 L 19.203125 -5.015625 L 21.265625 0 Z M 13.0625 -19.21875 L 13.203125 -19.859375 L 13.265625 -19.859375 L 13.375 -19.21875 L 17.578125 -8.984375 L 8.875 -8.984375 Z M 13.0625 -19.21875 "/></g></g></g><g fill="#000000" fill-opacity="1"><g transform="translate(919.270406, 454.025375)"><g><path d="M 11.703125 7.4375 C 18.359375 7.4375 22.015625 3.265625 22.015625 -2.25 L 22.015625 -19.625 L 17.625 -19.625 L 17.625 -16.28125 C 16.59375 -18.3125 14.15625 -20.21875 10.65625 -20.21875 C 5.1875 -20.21875 1.3125 -15.53125 1.3125 -10.21875 C 1.3125 -4.875 5.234375 -0.484375 10.796875 -0.484375 C 13.71875 -0.484375 16.265625 -1.625 17.59375 -4.203125 L 17.59375 -2.1875 C 17.59375 0.875 15.953125 3.546875 11.6875 3.546875 C 8.1875 3.546875 6.875 2.046875 6.46875 -0.015625 L 2.125 -0.015625 C 2.25 3.703125 5 7.4375 11.703125 7.4375 Z M 11.65625 -4.484375 C 8.421875 -4.484375 5.890625 -6.90625 5.890625 -10.234375 C 5.890625 -13.609375 8.421875 -15.9375 11.65625 -15.9375 C 14.90625 -15.9375 17.421875 -13.28125 17.421875 -10.234375 C 17.421875 -7.09375 14.890625 -4.484375 11.65625 -4.484375 Z M 11.65625 -4.484375 "/></g></g></g><g fill="#000000" fill-opacity="1"><g transform="translate(943.989984, 454.025375)"><g><path d="M 4.984375 -22.671875 C 6.859375 -22.671875 7.90625 -23.84375 7.90625 -25.328125 C 7.90625 -26.765625 6.859375 -27.96875 5 -27.96875 C 3.1875 -27.96875 2.140625 -26.765625 2.140625 -25.328125 C 2.140625 -23.859375 3.203125 -22.671875 4.984375 -22.671875 Z M 7.328125 0 L 7.328125 -19.625 L 2.703125 -19.625 L 2.703125 0 Z M 7.328125 0 "/></g></g></g><g fill="#000000" fill-opacity="1"><g transform="translate(954.011434, 454.025375)"><g><path d="M 7.328125 0 L 7.328125 -26.890625 L 2.703125 -26.890625 L 2.703125 0 Z M 7.328125 0 "/></g></g></g><g fill="#000000" fill-opacity="1"><g transform="translate(964.032884, 454.025375)"><g><path d="M 4.984375 -22.671875 C 6.859375 -22.671875 7.90625 -23.84375 7.90625 -25.328125 C 7.90625 -26.765625 6.859375 -27.96875 5 -27.96875 C 3.1875 -27.96875 2.140625 -26.765625 2.140625 -25.328125 C 2.140625 -23.859375 3.203125 -22.671875 4.984375 -22.671875 Z M 7.328125 0 L 7.328125 -19.625 L 2.703125 -19.625 L 2.703125 0 Z M 7.328125 0 "/></g></g></g><g fill="#000000" fill-opacity="1"><g transform="translate(974.054335, 454.025375)"><g><path d="M 18.109375 0 L 18.109375 -3.890625 L 7.5625 -3.890625 L 17.65625 -16.71875 L 17.65625 -19.625 L 1.71875 -19.625 L 1.71875 -15.734375 L 11.375 -15.734375 L 1.203125 -2.859375 L 1.203125 0 Z M 18.109375 0 "/></g></g></g><g fill="#000000" fill-opacity="1"><g transform="translate(993.066458, 454.025375)"><g><path d="M 10.5625 0.59375 C 13.75 0.59375 16.34375 -0.859375 17.625 -3.296875 L 17.625 0 L 22.015625 0 L 22.015625 -19.625 L 17.625 -19.625 L 17.625 -16.296875 C 16.359375 -18.75 13.75 -20.21875 10.53125 -20.21875 C 5.28125 -20.21875 1.3125 -15.53125 1.3125 -9.8125 C 1.3125 -4.046875 5.25 0.59375 10.5625 0.59375 Z M 11.65625 -3.6875 C 8.546875 -3.6875 5.890625 -6 5.890625 -9.8125 C 5.890625 -13.5 8.5 -15.9375 11.65625 -15.9375 C 14.875 -15.9375 17.421875 -13.234375 17.421875 -9.8125 C 17.421875 -6.34375 14.890625 -3.6875 11.65625 -3.6875 Z M 11.65625 -3.6875 "/></g></g></g><g fill="#000000" fill-opacity="1"><g transform="translate(1017.786035, 454.025375)"><g><path d="M 15.25 -8.46875 L 15.25 -12.28125 L 2.21875 -12.28125 L 2.21875 -8.46875 Z M 15.25 -8.46875 "/></g></g></g><g fill="#000000" fill-opacity="1"><g transform="translate(1035.251991, 454.025375)"><g><path d="M 26.28125 0 L 15.484375 -25.984375 L 10.96875 -25.984375 L 0.171875 0 L 5.1875 0 L 7.25 -5.015625 L 19.203125 -5.015625 L 21.265625 0 Z M 13.0625 -19.21875 L 13.203125 -19.859375 L 13.265625 -19.859375 L 13.375 -19.21875 L 17.578125 -8.984375 L 8.875 -8.984375 Z M 13.0625 -19.21875 "/></g></g></g><g fill="#000000" fill-opacity="1"><g transform="translate(1061.727708, 454.025375)"><g><path d="M 13.515625 -22.03125 L 17.1875 -22.03125 L 12.8125 -26.921875 L 9.5 -26.921875 L 5.15625 -22.03125 L 8.8125 -22.03125 L 11.171875 -24.59375 Z M 21.375 -10.15625 C 21.375 -15.5625 17.40625 -20.21875 11.484375 -20.21875 C 5.59375 -20.21875 1.3125 -15.53125 1.3125 -9.8125 C 1.3125 -4.078125 5.59375 0.59375 11.484375 0.59375 C 16.375 0.59375 19.875 -2.640625 20.859375 -6.171875 L 15.828125 -6.171875 C 15.15625 -4.5 13.71875 -3.53125 11.390625 -3.53125 C 8.6875 -3.53125 6.4375 -5.390625 5.953125 -8.59375 L 21.28125 -8.59375 C 21.359375 -9.3125 21.375 -9.65625 21.375 -10.15625 Z M 6.140625 -12.15625 C 6.921875 -14.921875 9.140625 -16.1875 11.46875 -16.1875 C 14.1875 -16.1875 16.46875 -14.359375 16.671875 -12.15625 Z M 6.140625 -12.15625 "/></g></g></g></svg>