<svg xmlns="http://www.w3.org/2000/svg" xmlns:xlink="http://www.w3.org/1999/xlink" width="500" zoomAndPan="magnify" viewBox="0 0 375 374.999991" height="500" preserveAspectRatio="xMidYMid meet" version="1.0"><defs><g/><clipPath id="021faf9138"><path d="M 157.214844 132 L 178 132 L 178 162 L 157.214844 162 Z M 157.214844 132 " clip-rule="nonzero"/></clipPath><clipPath id="25dbb34e69"><path d="M 157.214844 131 L 179 131 L 179 163 L 157.214844 163 Z M 157.214844 131 " clip-rule="nonzero"/></clipPath><clipPath id="2afc0b213b"><path d="M 197 132 L 217.964844 132 L 217.964844 162 L 197 162 Z M 197 132 " clip-rule="nonzero"/></clipPath><clipPath id="7a582ca3b2"><path d="M 196 131 L 217.964844 131 L 217.964844 163 L 196 163 Z M 196 131 " clip-rule="nonzero"/></clipPath><clipPath id="09810d1752"><path d="M 176 123.375 L 198 123.375 L 198 170.625 L 176 170.625 Z M 176 123.375 " clip-rule="nonzero"/></clipPath></defs><g clip-path="url(#021faf9138)"><path fill="#c300ff" d="M 176.320312 161.707031 C 175.988281 161.707031 175.65625 161.59375 175.394531 161.386719 L 158.457031 148.058594 C 158.09375 147.773438 157.882812 147.34375 157.882812 146.882812 C 157.882812 146.417969 158.09375 145.988281 158.457031 145.703125 L 175.394531 132.378906 C 175.65625 132.167969 175.988281 132.058594 176.320312 132.058594 C 176.785156 132.058594 177.214844 132.261719 177.5 132.628906 C 177.746094 132.941406 177.859375 133.335938 177.8125 133.734375 C 177.765625 134.132812 177.5625 134.488281 177.25 134.734375 L 161.8125 146.882812 L 177.25 159.027344 C 177.5625 159.277344 177.765625 159.632812 177.8125 160.027344 C 177.859375 160.425781 177.746094 160.816406 177.5 161.136719 C 177.214844 161.496094 176.785156 161.707031 176.320312 161.707031 " fill-opacity="1" fill-rule="nonzero"/></g><g clip-path="url(#25dbb34e69)"><path fill="#c300ff" d="M 176.320312 131.417969 C 175.84375 131.417969 175.375 131.578125 175 131.875 L 158.0625 145.199219 C 157.542969 145.613281 157.246094 146.222656 157.246094 146.882812 C 157.246094 147.542969 157.542969 148.15625 158.0625 148.5625 L 175 161.886719 C 175.375 162.183594 175.84375 162.347656 176.320312 162.347656 C 176.984375 162.347656 177.597656 162.046875 178.003906 161.527344 C 178.359375 161.082031 178.511719 160.523438 178.445312 159.953125 C 178.378906 159.386719 178.09375 158.878906 177.644531 158.527344 L 162.84375 146.882812 L 177.644531 135.238281 C 178.09375 134.882812 178.378906 134.375 178.445312 133.808594 C 178.511719 133.242188 178.359375 132.683594 178.003906 132.234375 C 177.597656 131.714844 176.980469 131.417969 176.320312 131.417969 Z M 176.320312 132.695312 C 176.578125 132.695312 176.828125 132.808594 177 133.023438 C 177.292969 133.398438 177.226562 133.941406 176.855469 134.234375 L 160.777344 146.882812 L 176.855469 159.53125 C 177.226562 159.824219 177.292969 160.367188 177 160.738281 C 176.828125 160.957031 176.578125 161.070312 176.320312 161.070312 C 176.132812 161.070312 175.949219 161.007812 175.789062 160.882812 L 158.851562 147.558594 C 158.644531 147.394531 158.523438 147.144531 158.523438 146.882812 C 158.523438 146.617188 158.644531 146.367188 158.851562 146.203125 L 175.789062 132.878906 C 175.945312 132.753906 176.132812 132.695312 176.320312 132.695312 " fill-opacity="1" fill-rule="nonzero"/></g><g clip-path="url(#2afc0b213b)"><path fill="#c300ff" d="M 198.667969 161.707031 C 198.207031 161.707031 197.777344 161.496094 197.488281 161.136719 C 196.976562 160.484375 197.089844 159.539062 197.742188 159.027344 L 213.179688 146.882812 L 197.742188 134.734375 C 197.089844 134.222656 196.976562 133.277344 197.488281 132.628906 C 197.777344 132.261719 198.207031 132.058594 198.667969 132.058594 C 199.003906 132.058594 199.332031 132.167969 199.597656 132.378906 L 216.535156 145.703125 C 216.898438 145.988281 217.105469 146.417969 217.105469 146.882812 C 217.105469 147.34375 216.898438 147.773438 216.53125 148.058594 L 199.597656 161.386719 C 199.332031 161.59375 199.003906 161.707031 198.667969 161.707031 " fill-opacity="1" fill-rule="nonzero"/></g><g clip-path="url(#7a582ca3b2)"><path fill="#c300ff" d="M 198.667969 131.417969 C 198.007812 131.417969 197.394531 131.714844 196.988281 132.234375 C 196.257812 133.160156 196.417969 134.507812 197.34375 135.238281 L 212.144531 146.882812 L 197.34375 158.527344 C 196.417969 159.253906 196.257812 160.601562 196.988281 161.527344 C 197.394531 162.046875 198.007812 162.347656 198.667969 162.347656 C 199.148438 162.347656 199.613281 162.183594 199.988281 161.886719 L 216.929688 148.5625 C 217.445312 148.15625 217.742188 147.542969 217.742188 146.882812 C 217.742188 146.222656 217.445312 145.613281 216.929688 145.199219 L 199.992188 131.875 C 199.617188 131.578125 199.148438 131.417969 198.667969 131.417969 Z M 198.667969 132.695312 C 198.855469 132.695312 199.042969 132.753906 199.199219 132.878906 L 216.140625 146.203125 C 216.347656 146.367188 216.464844 146.617188 216.464844 146.882812 C 216.464844 147.144531 216.347656 147.394531 216.140625 147.558594 L 199.199219 160.882812 C 199.042969 161.007812 198.855469 161.070312 198.667969 161.070312 C 198.414062 161.070312 198.160156 160.957031 197.992188 160.738281 C 197.699219 160.367188 197.761719 159.824219 198.136719 159.53125 L 214.210938 146.882812 L 198.136719 134.234375 C 197.761719 133.941406 197.699219 133.398438 197.992188 133.023438 C 198.160156 132.808594 198.414062 132.695312 198.667969 132.695312 " fill-opacity="1" fill-rule="nonzero"/></g><path fill="#c300ff" d="M 179.078125 169.75 C 178.890625 169.75 178.710938 169.710938 178.535156 169.644531 C 178.164062 169.5 177.867188 169.21875 177.707031 168.855469 C 177.542969 168.484375 177.535156 168.078125 177.679688 167.707031 L 194.21875 124.972656 C 194.441406 124.402344 195.003906 124.015625 195.617188 124.015625 C 195.804688 124.015625 195.988281 124.050781 196.164062 124.117188 C 196.929688 124.417969 197.316406 125.289062 197.019531 126.058594 L 180.476562 168.789062 C 180.257812 169.363281 179.691406 169.75 179.078125 169.75 " fill-opacity="1" fill-rule="nonzero"/><g clip-path="url(#09810d1752)"><path fill="#c300ff" d="M 195.617188 123.375 C 194.742188 123.375 193.9375 123.929688 193.625 124.742188 L 177.082031 167.472656 C 176.878906 168.007812 176.890625 168.589844 177.121094 169.113281 C 177.351562 169.632812 177.773438 170.035156 178.304688 170.242188 C 178.554688 170.339844 178.8125 170.386719 179.078125 170.386719 C 179.953125 170.386719 180.757812 169.835938 181.074219 169.019531 L 197.613281 126.289062 C 198.039062 125.1875 197.492188 123.945312 196.390625 123.523438 C 196.144531 123.425781 195.882812 123.375 195.617188 123.375 Z M 195.617188 124.652344 C 195.722656 124.652344 195.828125 124.675781 195.929688 124.714844 C 196.375 124.882812 196.59375 125.382812 196.421875 125.828125 L 179.878906 168.558594 C 179.75 168.898438 179.421875 169.109375 179.078125 169.109375 C 178.972656 169.109375 178.867188 169.089844 178.765625 169.050781 C 178.320312 168.878906 178.101562 168.378906 178.277344 167.9375 L 194.816406 125.207031 C 194.949219 124.863281 195.273438 124.652344 195.617188 124.652344 " fill-opacity="1" fill-rule="nonzero"/></g><g fill="#ffffff" fill-opacity="1"><g transform="translate(140.199015, 216.116295)"><g><path d="M 18.9375 -13.25 L 25.8125 -13.25 L 25.8125 -7.171875 C 23.90625 -6.09375 21.75 -5.546875 19.46875 -5.546875 C 13.421875 -5.546875 8.484375 -9.03125 8.484375 -16.78125 L 8.484375 -16.859375 C 8.484375 -24.640625 13.421875 -28.078125 19.46875 -28.078125 C 23.078125 -28.078125 26.390625 -27.046875 28.875 -25.265625 L 31.390625 -30.9375 C 27.34375 -33.171875 23.609375 -34.171875 19.296875 -34.171875 C 8.859375 -34.171875 1.703125 -27.125 1.703125 -16.859375 L 1.703125 -16.78125 C 1.703125 -6.546875 8.859375 0.53125 19.296875 0.53125 C 23.53125 0.53125 28.703125 -0.65625 31.984375 -2.8125 L 31.984375 -18.46875 L 18.9375 -18.46875 Z M 18.9375 -13.25 "/></g></g></g><g fill="#ffffff" fill-opacity="1"><g transform="translate(172.957136, 216.116295)"><g><path d="M 13.34375 -24.609375 C 10.3125 -24.609375 6.796875 -23.9375 5.015625 -23.234375 L 3.5625 -17.390625 C 6.171875 -18.4375 9.5625 -19.046875 11.921875 -19.046875 C 15.578125 -19.046875 17.640625 -17.984375 17.640625 -15 L 17.640625 -14.125 C 15.703125 -14.375 14 -14.453125 12.265625 -14.453125 C 5.75 -14.453125 1.65625 -12.140625 1.65625 -7.078125 L 1.65625 -7 C 1.65625 -1.40625 6.171875 0.65625 13.46875 0.65625 C 16.6875 0.65625 20.953125 0.203125 24.234375 -0.5 L 24.234375 -15.203125 C 24.234375 -22.25 19.921875 -24.609375 13.34375 -24.609375 Z M 8.40625 -7.421875 C 8.40625 -9.53125 10.390625 -10.265625 13.703125 -10.265625 C 14.75 -10.265625 16.3125 -10.140625 17.640625 -9.9375 L 17.640625 -4.8125 C 16.28125 -4.59375 14.828125 -4.46875 13.703125 -4.46875 C 10.359375 -4.46875 8.40625 -5.296875 8.40625 -7.328125 Z M 8.40625 -7.421875 "/></g></g></g><g fill="#ffffff" fill-opacity="1"><g transform="translate(197.763766, 216.116295)"><g><path d="M 13.046875 0.65625 C 21.171875 0.65625 26.265625 -4.71875 26.265625 -12.015625 L 26.265625 -12.09375 C 26.265625 -19.390625 21.453125 -24.734375 13.34375 -24.734375 C 11.8125 -24.734375 10.265625 -24.4375 8.828125 -24.109375 L 8.828125 -33.59375 L 2.234375 -33.59375 L 2.234375 -1.65625 C 5.640625 0 8.609375 0.65625 13.046875 0.65625 Z M 13.046875 -5.21875 C 11.515625 -5.21875 10.109375 -5.421875 8.828125 -5.75 L 8.828125 -18.21875 C 10.109375 -18.515625 11.640625 -18.84375 13.046875 -18.84375 C 17.390625 -18.84375 19.640625 -15.90625 19.640625 -12.09375 L 19.640625 -12.015625 C 19.640625 -8.203125 17.390625 -5.21875 13.046875 -5.21875 Z M 13.046875 -5.21875 "/></g></g></g><g fill="#ffffff" fill-opacity="1"><g transform="translate(224.144118, 216.116295)"><g><path d="M 6.09375 0.453125 C 8.203125 0.453125 9.9375 -0.53125 9.9375 -2.609375 C 9.9375 -4.46875 8.375 -5.640625 6.09375 -5.640625 C 3.859375 -5.640625 2.234375 -4.46875 2.234375 -2.609375 C 2.234375 -0.53125 3.96875 0.453125 6.09375 0.453125 Z M 6.09375 0.453125 "/></g></g></g><g fill="#03fa6e" fill-opacity="1"><g transform="translate(138.147849, 245.299906)"><g><path d="M 6.90625 0.3125 C 8.96875 0.3125 10.34375 0 11.921875 -0.765625 L 11.921875 -15.59375 L 8.890625 -15.59375 L 8.890625 -11.1875 C 8.21875 -11.34375 7.5 -11.484375 6.796875 -11.484375 C 3.015625 -11.484375 0.78125 -9 0.78125 -5.609375 L 0.78125 -5.578125 C 0.78125 -2.1875 3.140625 0.3125 6.90625 0.3125 Z M 6.90625 -2.421875 C 4.90625 -2.421875 3.84375 -3.8125 3.84375 -5.578125 L 3.84375 -5.609375 C 3.84375 -7.390625 4.90625 -8.75 6.90625 -8.75 C 7.578125 -8.75 8.296875 -8.59375 8.890625 -8.46875 L 8.890625 -2.671875 C 8.296875 -2.515625 7.640625 -2.421875 6.90625 -2.421875 Z M 6.90625 -2.421875 "/></g></g></g><g fill="#03fa6e" fill-opacity="1"><g transform="translate(150.397346, 245.299906)"><g><path d="M 12.21875 -5.15625 C 12.21875 -9.09375 10.0625 -11.484375 6.515625 -11.484375 C 3.015625 -11.484375 0.765625 -9.0625 0.765625 -5.609375 L 0.765625 -5.59375 C 0.765625 -2.09375 3.171875 0.28125 6.890625 0.28125 C 9.046875 0.28125 10.5625 -0.390625 11.671875 -1.078125 L 10.34375 -3.4375 C 9.546875 -2.859375 8.359375 -2.390625 7.015625 -2.390625 C 5.34375 -2.390625 4.25 -3.46875 3.9375 -4.890625 L 12.21875 -4.890625 Z M 6.5 -9 C 7.984375 -9 8.859375 -8.046875 9.09375 -6.765625 L 3.96875 -6.765625 C 4.25 -8.046875 5.171875 -9 6.5 -9 Z M 6.5 -9 "/></g></g></g><g fill="#03fa6e" fill-opacity="1"><g transform="translate(162.666068, 245.299906)"><g><path d="M 6.09375 -2.15625 L 3.421875 -11.046875 L 0.234375 -11.046875 L 4 0 L 8.1875 0 L 11.96875 -11.046875 L 8.765625 -11.046875 Z M 6.09375 -2.15625 "/></g></g></g><g fill="#03fa6e" fill-opacity="1"><g transform="translate(174.12711, 245.299906)"><g><path d="M 12.21875 -5.15625 C 12.21875 -9.09375 10.0625 -11.484375 6.515625 -11.484375 C 3.015625 -11.484375 0.765625 -9.0625 0.765625 -5.609375 L 0.765625 -5.59375 C 0.765625 -2.09375 3.171875 0.28125 6.890625 0.28125 C 9.046875 0.28125 10.5625 -0.390625 11.671875 -1.078125 L 10.34375 -3.4375 C 9.546875 -2.859375 8.359375 -2.390625 7.015625 -2.390625 C 5.34375 -2.390625 4.25 -3.46875 3.9375 -4.890625 L 12.21875 -4.890625 Z M 6.5 -9 C 7.984375 -9 8.859375 -8.046875 9.09375 -6.765625 L 3.96875 -6.765625 C 4.25 -8.046875 5.171875 -9 6.5 -9 Z M 6.5 -9 "/></g></g></g><g fill="#03fa6e" fill-opacity="1"><g transform="translate(186.395834, 245.299906)"><g><path d="M 4.09375 0 L 4.09375 -15.59375 L 1.03125 -15.59375 L 1.03125 0 Z M 4.09375 0 "/></g></g></g><g fill="#03fa6e" fill-opacity="1"><g transform="translate(190.799263, 245.299906)"><g><path d="M 6.90625 0.3125 C 10.515625 0.3125 13.046875 -2.1875 13.046875 -5.59375 L 13.046875 -5.609375 C 13.046875 -9 10.515625 -11.484375 6.90625 -11.484375 C 3.296875 -11.484375 0.78125 -9 0.78125 -5.609375 L 0.78125 -5.59375 C 0.78125 -2.1875 3.3125 0.3125 6.90625 0.3125 Z M 6.90625 -2.421875 C 5.078125 -2.421875 3.84375 -3.8125 3.84375 -5.59375 L 3.84375 -5.640625 C 3.84375 -7.40625 5.0625 -8.75 6.90625 -8.75 C 8.765625 -8.75 9.96875 -7.40625 9.96875 -5.640625 L 9.96875 -5.59375 C 9.96875 -3.8125 8.75 -2.421875 6.90625 -2.421875 Z M 6.90625 -2.421875 "/></g></g></g><g fill="#03fa6e" fill-opacity="1"><g transform="translate(203.875665, 245.299906)"><g><path d="M 4.09375 4.234375 L 4.09375 -0.015625 C 4.765625 0.15625 5.484375 0.28125 6.1875 0.28125 C 9.9375 0.28125 12.1875 -2.1875 12.1875 -5.5625 L 12.1875 -5.59375 C 12.1875 -8.984375 9.828125 -11.484375 6.0625 -11.484375 C 4 -11.484375 2.359375 -10.96875 1.03125 -10.421875 L 1.03125 4.234375 Z M 6.0625 -2.4375 C 5.40625 -2.4375 4.6875 -2.59375 4.09375 -2.75 L 4.09375 -8.515625 C 4.6875 -8.671875 5.34375 -8.75 6.0625 -8.75 C 8.078125 -8.75 9.109375 -7.390625 9.109375 -5.59375 L 9.109375 -5.5625 C 9.109375 -3.796875 8.078125 -2.4375 6.0625 -2.4375 Z M 6.0625 -2.4375 "/></g></g></g><g fill="#03fa6e" fill-opacity="1"><g transform="translate(216.125163, 245.299906)"><g><path d="M 12.21875 -5.15625 C 12.21875 -9.09375 10.0625 -11.484375 6.515625 -11.484375 C 3.015625 -11.484375 0.765625 -9.0625 0.765625 -5.609375 L 0.765625 -5.59375 C 0.765625 -2.09375 3.171875 0.28125 6.890625 0.28125 C 9.046875 0.28125 10.5625 -0.390625 11.671875 -1.078125 L 10.34375 -3.4375 C 9.546875 -2.859375 8.359375 -2.390625 7.015625 -2.390625 C 5.34375 -2.390625 4.25 -3.46875 3.9375 -4.890625 L 12.21875 -4.890625 Z M 6.5 -9 C 7.984375 -9 8.859375 -8.046875 9.09375 -6.765625 L 3.96875 -6.765625 C 4.25 -8.046875 5.171875 -9 6.5 -9 Z M 6.5 -9 "/></g></g></g><g fill="#03fa6e" fill-opacity="1"><g transform="translate(228.393886, 245.299906)"><g><path d="M 4.09375 0 L 4.09375 -8.078125 C 4.34375 -8.140625 5.59375 -8.234375 6.0625 -8.234375 L 7.71875 -8.234375 L 7.71875 -11.046875 L 5.5625 -11.046875 C 4.5625 -11.046875 2.65625 -10.96875 1.03125 -10.625 L 1.03125 0 Z M 4.09375 0 "/></g></g></g></svg>