<svg xmlns="http://www.w3.org/2000/svg" xmlns:xlink="http://www.w3.org/1999/xlink" width="1920" zoomAndPan="magnify" viewBox="0 0 1440 809.999993" height="1080" preserveAspectRatio="xMidYMid meet" version="1.0"><defs><filter x="0%" y="0%" width="100%" height="100%" id="482eea2da4"><feColorMatrix values="0 0 0 0 1 0 0 0 0 1 0 0 0 0 1 0 0 0 1 0" color-interpolation-filters="sRGB"/></filter><mask id="7c008682c7"><g filter="url(#482eea2da4)"><rect x="-144" width="1728" fill="#000000" y="-80.999999" height="971.999992" fill-opacity="0.02"/></g></mask><clipPath id="bf61a05d33"><path d="M 0.882812 0.121094 L 89.984375 0.121094 L 89.984375 99.480469 L 0.882812 99.480469 Z M 0.882812 0.121094 " clip-rule="nonzero"/></clipPath><clipPath id="9156e055e4"><rect x="0" width="91" y="0" height="100"/></clipPath><mask id="5f868c9d87"><g filter="url(#482eea2da4)"><rect x="-144" width="1728" fill="#000000" y="-80.999999" height="971.999992" fill-opacity="0.02"/></g></mask><clipPath id="bfc419dcc5"><path d="M 0.882812 1 L 89.683594 1 L 89.683594 100 L 0.882812 100 Z M 0.882812 1 " clip-rule="nonzero"/></clipPath><clipPath id="0d6ce6ec1b"><rect x="0" width="91" y="0" height="101"/></clipPath><mask id="cc2edfae70"><g filter="url(#482eea2da4)"><rect x="-144" width="1728" fill="#000000" y="-80.999999" height="971.999992" fill-opacity="0.02"/></g></mask><clipPath id="7407add085"><path d="M 0.882812 1 L 89.984375 1 L 89.984375 100 L 0.882812 100 Z M 0.882812 1 " clip-rule="nonzero"/></clipPath><clipPath id="b69f749a57"><rect x="0" width="91" y="0" height="101"/></clipPath><mask id="cfec807e1c"><g filter="url(#482eea2da4)"><rect x="-144" width="1728" fill="#000000" y="-80.999999" height="971.999992" fill-opacity="0.02"/></g></mask><clipPath id="d599a42f38"><path d="M 0.882812 0.398438 L 89.683594 0.398438 L 89.683594 100 L 0.882812 100 Z M 0.882812 0.398438 " clip-rule="nonzero"/></clipPath><clipPath id="7506744466"><rect x="0" width="91" y="0" height="100"/></clipPath><mask id="ec3ee69181"><g filter="url(#482eea2da4)"><rect x="-144" width="1728" fill="#000000" y="-80.999999" height="971.999992" fill-opacity="0.02"/></g></mask><clipPath id="6527706892"><path d="M 0.882812 0.320312 L 89.984375 0.320312 L 89.984375 99.679688 L 0.882812 99.679688 Z M 0.882812 0.320312 " clip-rule="nonzero"/></clipPath><clipPath id="834d036bc1"><rect x="0" width="91" y="0" height="100"/></clipPath><mask id="917d08fd33"><g filter="url(#482eea2da4)"><rect x="-144" width="1728" fill="#000000" y="-80.999999" height="971.999992" fill-opacity="0.02"/></g></mask><clipPath id="a2b5c31e37"><path d="M 0.882812 0 L 89.683594 0 L 89.683594 99.601562 L 0.882812 99.601562 Z M 0.882812 0 " clip-rule="nonzero"/></clipPath><clipPath id="d72f5829f5"><rect x="0" width="91" y="0" height="100"/></clipPath><mask id="9fc6cb77d6"><g filter="url(#482eea2da4)"><rect x="-144" width="1728" fill="#000000" y="-80.999999" height="971.999992" fill-opacity="0.02"/></g></mask><clipPath id="93a905a9b8"><path d="M 0.882812 1 L 89.984375 1 L 89.984375 100 L 0.882812 100 Z M 0.882812 1 " clip-rule="nonzero"/></clipPath><clipPath id="b502c56b16"><rect x="0" width="91" y="0" height="101"/></clipPath><mask id="b87e27b255"><g filter="url(#482eea2da4)"><rect x="-144" width="1728" fill="#000000" y="-80.999999" height="971.999992" fill-opacity="0.02"/></g></mask><clipPath id="d3071d500d"><path d="M 0.882812 0.601562 L 89.683594 0.601562 L 89.683594 100 L 0.882812 100 Z M 0.882812 0.601562 " clip-rule="nonzero"/></clipPath><clipPath id="369f041a7c"><rect x="0" width="91" y="0" height="101"/></clipPath><mask id="d363d1efa2"><g filter="url(#482eea2da4)"><rect x="-144" width="1728" fill="#000000" y="-80.999999" height="971.999992" fill-opacity="0.02"/></g></mask><clipPath id="f5ff3b2a89"><path d="M 1.027344 0.121094 L 90 0.121094 L 90 99.480469 L 1.027344 99.480469 Z M 1.027344 0.121094 " clip-rule="nonzero"/></clipPath><clipPath id="4b01cf2a9f"><rect x="0" width="91" y="0" height="100"/></clipPath><mask id="bf32386825"><g filter="url(#482eea2da4)"><rect x="-144" width="1728" fill="#000000" y="-80.999999" height="971.999992" fill-opacity="0.02"/></g></mask><clipPath id="0ac016fa4f"><path d="M 1.027344 1 L 89.828125 1 L 89.828125 100 L 1.027344 100 Z M 1.027344 1 " clip-rule="nonzero"/></clipPath><clipPath id="a162f82dd4"><rect x="0" width="91" y="0" height="101"/></clipPath><mask id="890e78552e"><g filter="url(#482eea2da4)"><rect x="-144" width="1728" fill="#000000" y="-80.999999" height="971.999992" fill-opacity="0.02"/></g></mask><clipPath id="1ec0783bac"><path d="M 1.027344 1 L 90 1 L 90 100 L 1.027344 100 Z M 1.027344 1 " clip-rule="nonzero"/></clipPath><clipPath id="4d9cb7e244"><rect x="0" width="91" y="0" height="101"/></clipPath><mask id="753bf6ee21"><g filter="url(#482eea2da4)"><rect x="-144" width="1728" fill="#000000" y="-80.999999" height="971.999992" fill-opacity="0.02"/></g></mask><clipPath id="5f7ec6c9f8"><path d="M 1.027344 0.398438 L 89.828125 0.398438 L 89.828125 100 L 1.027344 100 Z M 1.027344 0.398438 " clip-rule="nonzero"/></clipPath><clipPath id="99f867cedf"><rect x="0" width="91" y="0" height="100"/></clipPath><mask id="7146aad9f2"><g filter="url(#482eea2da4)"><rect x="-144" width="1728" fill="#000000" y="-80.999999" height="971.999992" fill-opacity="0.02"/></g></mask><clipPath id="ba1958d87d"><path d="M 1.027344 0.320312 L 90 0.320312 L 90 99.679688 L 1.027344 99.679688 Z M 1.027344 0.320312 " clip-rule="nonzero"/></clipPath><clipPath id="fe3bd42c77"><rect x="0" width="91" y="0" height="100"/></clipPath><mask id="b2ea2cc83d"><g filter="url(#482eea2da4)"><rect x="-144" width="1728" fill="#000000" y="-80.999999" height="971.999992" fill-opacity="0.02"/></g></mask><clipPath id="c02a9fa99c"><path d="M 1.027344 0 L 89.828125 0 L 89.828125 99.601562 L 1.027344 99.601562 Z M 1.027344 0 " clip-rule="nonzero"/></clipPath><clipPath id="953d82993b"><rect x="0" width="91" y="0" height="100"/></clipPath><mask id="d8552fcba5"><g filter="url(#482eea2da4)"><rect x="-144" width="1728" fill="#000000" y="-80.999999" height="971.999992" fill-opacity="0.02"/></g></mask><clipPath id="5c0dd4154e"><path d="M 1.027344 1 L 90 1 L 90 100 L 1.027344 100 Z M 1.027344 1 " clip-rule="nonzero"/></clipPath><clipPath id="a07f6b43ee"><rect x="0" width="91" y="0" height="101"/></clipPath><mask id="fcd06f459a"><g filter="url(#482eea2da4)"><rect x="-144" width="1728" fill="#000000" y="-80.999999" height="971.999992" fill-opacity="0.02"/></g></mask><clipPath id="a9b81014bd"><path d="M 1.027344 0.601562 L 89.828125 0.601562 L 89.828125 100 L 1.027344 100 Z M 1.027344 0.601562 " clip-rule="nonzero"/></clipPath><clipPath id="b7479684f3"><rect x="0" width="91" y="0" height="101"/></clipPath><mask id="f42a55dccf"><g filter="url(#482eea2da4)"><rect x="-144" width="1728" fill="#000000" y="-80.999999" height="971.999992" fill-opacity="0.02"/></g></mask><clipPath id="21f18eec22"><path d="M 1.230469 0.121094 L 90.332031 0.121094 L 90.332031 99.480469 L 1.230469 99.480469 Z M 1.230469 0.121094 " clip-rule="nonzero"/></clipPath><clipPath id="3740434c98"><rect x="0" width="91" y="0" height="100"/></clipPath><mask id="a6aeeee7f4"><g filter="url(#482eea2da4)"><rect x="-144" width="1728" fill="#000000" y="-80.999999" height="971.999992" fill-opacity="0.02"/></g></mask><clipPath id="4409237260"><path d="M 1.230469 1 L 90.03125 1 L 90.03125 100 L 1.230469 100 Z M 1.230469 1 " clip-rule="nonzero"/></clipPath><clipPath id="a936a4a777"><rect x="0" width="91" y="0" height="101"/></clipPath><mask id="47aa6c4ad3"><g filter="url(#482eea2da4)"><rect x="-144" width="1728" fill="#000000" y="-80.999999" height="971.999992" fill-opacity="0.02"/></g></mask><clipPath id="541400c347"><path d="M 1.230469 1 L 90.332031 1 L 90.332031 100 L 1.230469 100 Z M 1.230469 1 " clip-rule="nonzero"/></clipPath><clipPath id="d17310d7ee"><rect x="0" width="91" y="0" height="101"/></clipPath><mask id="6890abc3e0"><g filter="url(#482eea2da4)"><rect x="-144" width="1728" fill="#000000" y="-80.999999" height="971.999992" fill-opacity="0.02"/></g></mask><clipPath id="bf7185cab1"><path d="M 1.230469 0.398438 L 90.03125 0.398438 L 90.03125 100 L 1.230469 100 Z M 1.230469 0.398438 " clip-rule="nonzero"/></clipPath><clipPath id="cafd9c8fa5"><rect x="0" width="91" y="0" height="100"/></clipPath><mask id="819deb544d"><g filter="url(#482eea2da4)"><rect x="-144" width="1728" fill="#000000" y="-80.999999" height="971.999992" fill-opacity="0.02"/></g></mask><clipPath id="4f9d370d10"><path d="M 1.230469 0.320312 L 90.332031 0.320312 L 90.332031 99.679688 L 1.230469 99.679688 Z M 1.230469 0.320312 " clip-rule="nonzero"/></clipPath><clipPath id="c811fd19a9"><rect x="0" width="91" y="0" height="100"/></clipPath><mask id="a8bb490a3a"><g filter="url(#482eea2da4)"><rect x="-144" width="1728" fill="#000000" y="-80.999999" height="971.999992" fill-opacity="0.02"/></g></mask><clipPath id="4101d2068a"><path d="M 1.230469 0 L 90.03125 0 L 90.03125 99.601562 L 1.230469 99.601562 Z M 1.230469 0 " clip-rule="nonzero"/></clipPath><clipPath id="d39d7656ce"><rect x="0" width="91" y="0" height="100"/></clipPath><mask id="074e30fad0"><g filter="url(#482eea2da4)"><rect x="-144" width="1728" fill="#000000" y="-80.999999" height="971.999992" fill-opacity="0.02"/></g></mask><clipPath id="baf8acc7bb"><path d="M 1.230469 1 L 90.332031 1 L 90.332031 100 L 1.230469 100 Z M 1.230469 1 " clip-rule="nonzero"/></clipPath><clipPath id="9d5dfaa83f"><rect x="0" width="91" y="0" height="101"/></clipPath><mask id="d26480348a"><g filter="url(#482eea2da4)"><rect x="-144" width="1728" fill="#000000" y="-80.999999" height="971.999992" fill-opacity="0.02"/></g></mask><clipPath id="73dbafd03b"><path d="M 1.230469 0.601562 L 90.03125 0.601562 L 90.03125 100 L 1.230469 100 Z M 1.230469 0.601562 " clip-rule="nonzero"/></clipPath><clipPath id="02f6026cb4"><rect x="0" width="91" y="0" height="101"/></clipPath><mask id="68d435d9e4"><g filter="url(#482eea2da4)"><rect x="-144" width="1728" fill="#000000" y="-80.999999" height="971.999992" fill-opacity="0.02"/></g></mask><clipPath id="bcbd91a90c"><path d="M 0.375 0.121094 L 89.472656 0.121094 L 89.472656 99.480469 L 0.375 99.480469 Z M 0.375 0.121094 " clip-rule="nonzero"/></clipPath><clipPath id="831411d6da"><rect x="0" width="90" y="0" height="100"/></clipPath><mask id="6c0e24f222"><g filter="url(#482eea2da4)"><rect x="-144" width="1728" fill="#000000" y="-80.999999" height="971.999992" fill-opacity="0.02"/></g></mask><clipPath id="af274f2a04"><path d="M 0.375 1 L 89.171875 1 L 89.171875 100 L 0.375 100 Z M 0.375 1 " clip-rule="nonzero"/></clipPath><clipPath id="22f2889b97"><rect x="0" width="90" y="0" height="101"/></clipPath><mask id="4bbe711b3a"><g filter="url(#482eea2da4)"><rect x="-144" width="1728" fill="#000000" y="-80.999999" height="971.999992" fill-opacity="0.02"/></g></mask><clipPath id="112fce23a7"><path d="M 0.375 1 L 89.472656 1 L 89.472656 100 L 0.375 100 Z M 0.375 1 " clip-rule="nonzero"/></clipPath><clipPath id="b2decc6100"><rect x="0" width="90" y="0" height="101"/></clipPath><mask id="77d553f4f4"><g filter="url(#482eea2da4)"><rect x="-144" width="1728" fill="#000000" y="-80.999999" height="971.999992" fill-opacity="0.02"/></g></mask><clipPath id="0799a262d3"><path d="M 0.375 0.398438 L 89.171875 0.398438 L 89.171875 100 L 0.375 100 Z M 0.375 0.398438 " clip-rule="nonzero"/></clipPath><clipPath id="127cacc6e4"><rect x="0" width="90" y="0" height="100"/></clipPath><mask id="11e3b9193b"><g filter="url(#482eea2da4)"><rect x="-144" width="1728" fill="#000000" y="-80.999999" height="971.999992" fill-opacity="0.02"/></g></mask><clipPath id="870e2d9de0"><path d="M 0.375 0.320312 L 89.472656 0.320312 L 89.472656 99.679688 L 0.375 99.679688 Z M 0.375 0.320312 " clip-rule="nonzero"/></clipPath><clipPath id="23dbc95a4f"><rect x="0" width="90" y="0" height="100"/></clipPath><mask id="d61c01dc52"><g filter="url(#482eea2da4)"><rect x="-144" width="1728" fill="#000000" y="-80.999999" height="971.999992" fill-opacity="0.02"/></g></mask><clipPath id="668c8bb441"><path d="M 0.375 0 L 89.171875 0 L 89.171875 99.601562 L 0.375 99.601562 Z M 0.375 0 " clip-rule="nonzero"/></clipPath><clipPath id="6891b99de7"><rect x="0" width="90" y="0" height="100"/></clipPath><mask id="3f1ee96c23"><g filter="url(#482eea2da4)"><rect x="-144" width="1728" fill="#000000" y="-80.999999" height="971.999992" fill-opacity="0.02"/></g></mask><clipPath id="954c96468a"><path d="M 0.375 1 L 89.472656 1 L 89.472656 100 L 0.375 100 Z M 0.375 1 " clip-rule="nonzero"/></clipPath><clipPath id="7c08be87bf"><rect x="0" width="90" y="0" height="101"/></clipPath><mask id="181800df09"><g filter="url(#482eea2da4)"><rect x="-144" width="1728" fill="#000000" y="-80.999999" height="971.999992" fill-opacity="0.02"/></g></mask><clipPath id="402b93627d"><path d="M 0.375 0.601562 L 89.171875 0.601562 L 89.171875 100 L 0.375 100 Z M 0.375 0.601562 " clip-rule="nonzero"/></clipPath><clipPath id="81d058aba5"><rect x="0" width="90" y="0" height="101"/></clipPath><mask id="66fd6a805b"><g filter="url(#482eea2da4)"><rect x="-144" width="1728" fill="#000000" y="-80.999999" height="971.999992" fill-opacity="0.02"/></g></mask><clipPath id="3d61662a0c"><path d="M 0.703125 0.121094 L 89.800781 0.121094 L 89.800781 99.480469 L 0.703125 99.480469 Z M 0.703125 0.121094 " clip-rule="nonzero"/></clipPath><clipPath id="72f66896be"><rect x="0" width="91" y="0" height="100"/></clipPath><mask id="e5b958a0c6"><g filter="url(#482eea2da4)"><rect x="-144" width="1728" fill="#000000" y="-80.999999" height="971.999992" fill-opacity="0.02"/></g></mask><clipPath id="b44aff24ee"><path d="M 0.703125 1 L 89.5 1 L 89.5 100 L 0.703125 100 Z M 0.703125 1 " clip-rule="nonzero"/></clipPath><clipPath id="64dbf101ea"><rect x="0" width="90" y="0" height="101"/></clipPath><mask id="0f27057ca4"><g filter="url(#482eea2da4)"><rect x="-144" width="1728" fill="#000000" y="-80.999999" height="971.999992" fill-opacity="0.02"/></g></mask><clipPath id="770d56df70"><path d="M 0.703125 1 L 89.800781 1 L 89.800781 100 L 0.703125 100 Z M 0.703125 1 " clip-rule="nonzero"/></clipPath><clipPath id="bae210d97d"><rect x="0" width="91" y="0" height="101"/></clipPath><mask id="7cd6fe096c"><g filter="url(#482eea2da4)"><rect x="-144" width="1728" fill="#000000" y="-80.999999" height="971.999992" fill-opacity="0.02"/></g></mask><clipPath id="35336af295"><path d="M 0.703125 0.398438 L 89.5 0.398438 L 89.5 100 L 0.703125 100 Z M 0.703125 0.398438 " clip-rule="nonzero"/></clipPath><clipPath id="2fc260a885"><rect x="0" width="90" y="0" height="100"/></clipPath><mask id="ad5ad8bff4"><g filter="url(#482eea2da4)"><rect x="-144" width="1728" fill="#000000" y="-80.999999" height="971.999992" fill-opacity="0.02"/></g></mask><clipPath id="9723f9b1a6"><path d="M 0.703125 0.320312 L 89.800781 0.320312 L 89.800781 99.679688 L 0.703125 99.679688 Z M 0.703125 0.320312 " clip-rule="nonzero"/></clipPath><clipPath id="a2787eff77"><rect x="0" width="91" y="0" height="100"/></clipPath><mask id="748b12708b"><g filter="url(#482eea2da4)"><rect x="-144" width="1728" fill="#000000" y="-80.999999" height="971.999992" fill-opacity="0.02"/></g></mask><clipPath id="33bab35426"><path d="M 0.703125 0 L 89.5 0 L 89.5 99.601562 L 0.703125 99.601562 Z M 0.703125 0 " clip-rule="nonzero"/></clipPath><clipPath id="56f58d1503"><rect x="0" width="90" y="0" height="100"/></clipPath><mask id="7a16060ad0"><g filter="url(#482eea2da4)"><rect x="-144" width="1728" fill="#000000" y="-80.999999" height="971.999992" fill-opacity="0.02"/></g></mask><clipPath id="b021e2b1fe"><path d="M 0.703125 1 L 89.800781 1 L 89.800781 100 L 0.703125 100 Z M 0.703125 1 " clip-rule="nonzero"/></clipPath><clipPath id="ab4a742dde"><rect x="0" width="91" y="0" height="101"/></clipPath><mask id="4af48cff63"><g filter="url(#482eea2da4)"><rect x="-144" width="1728" fill="#000000" y="-80.999999" height="971.999992" fill-opacity="0.02"/></g></mask><clipPath id="ccb4ba46ac"><path d="M 0.703125 0.601562 L 89.5 0.601562 L 89.5 100 L 0.703125 100 Z M 0.703125 0.601562 " clip-rule="nonzero"/></clipPath><clipPath id="1989776cd8"><rect x="0" width="90" y="0" height="101"/></clipPath><mask id="43537682ec"><g filter="url(#482eea2da4)"><rect x="-144" width="1728" fill="#000000" y="-80.999999" height="971.999992" fill-opacity="0.02"/></g></mask><clipPath id="b82948866b"><path d="M 0.84375 0.121094 L 89.945312 0.121094 L 89.945312 99.480469 L 0.84375 99.480469 Z M 0.84375 0.121094 " clip-rule="nonzero"/></clipPath><clipPath id="111f3b59b2"><rect x="0" width="91" y="0" height="100"/></clipPath><mask id="3b2f693315"><g filter="url(#482eea2da4)"><rect x="-144" width="1728" fill="#000000" y="-80.999999" height="971.999992" fill-opacity="0.02"/></g></mask><clipPath id="81ea4eac3c"><path d="M 0.84375 1 L 89.644531 1 L 89.644531 100 L 0.84375 100 Z M 0.84375 1 " clip-rule="nonzero"/></clipPath><clipPath id="4b4db9b0db"><rect x="0" width="91" y="0" height="101"/></clipPath><mask id="b280260815"><g filter="url(#482eea2da4)"><rect x="-144" width="1728" fill="#000000" y="-80.999999" height="971.999992" fill-opacity="0.02"/></g></mask><clipPath id="6b9fbf9dc6"><path d="M 0.84375 1 L 89.945312 1 L 89.945312 100 L 0.84375 100 Z M 0.84375 1 " clip-rule="nonzero"/></clipPath><clipPath id="3767d4d146"><rect x="0" width="91" y="0" height="101"/></clipPath><mask id="93f56d21ca"><g filter="url(#482eea2da4)"><rect x="-144" width="1728" fill="#000000" y="-80.999999" height="971.999992" fill-opacity="0.02"/></g></mask><clipPath id="a7006a10c0"><path d="M 0.84375 0.398438 L 89.644531 0.398438 L 89.644531 100 L 0.84375 100 Z M 0.84375 0.398438 " clip-rule="nonzero"/></clipPath><clipPath id="ae6b6080a5"><rect x="0" width="91" y="0" height="100"/></clipPath><mask id="add33bad08"><g filter="url(#482eea2da4)"><rect x="-144" width="1728" fill="#000000" y="-80.999999" height="971.999992" fill-opacity="0.02"/></g></mask><clipPath id="f2777e1ffd"><path d="M 0.84375 0.320312 L 89.945312 0.320312 L 89.945312 99.679688 L 0.84375 99.679688 Z M 0.84375 0.320312 " clip-rule="nonzero"/></clipPath><clipPath id="53e1c5e85c"><rect x="0" width="91" y="0" height="100"/></clipPath><mask id="1a185ce374"><g filter="url(#482eea2da4)"><rect x="-144" width="1728" fill="#000000" y="-80.999999" height="971.999992" fill-opacity="0.02"/></g></mask><clipPath id="d63ca3ad2b"><path d="M 0.84375 0 L 89.644531 0 L 89.644531 99.601562 L 0.84375 99.601562 Z M 0.84375 0 " clip-rule="nonzero"/></clipPath><clipPath id="76da682e01"><rect x="0" width="91" y="0" height="100"/></clipPath><mask id="12373a1c55"><g filter="url(#482eea2da4)"><rect x="-144" width="1728" fill="#000000" y="-80.999999" height="971.999992" fill-opacity="0.02"/></g></mask><clipPath id="bd44eca6ff"><path d="M 0.84375 1 L 89.945312 1 L 89.945312 100 L 0.84375 100 Z M 0.84375 1 " clip-rule="nonzero"/></clipPath><clipPath id="b6721d39a2"><rect x="0" width="91" y="0" height="101"/></clipPath><mask id="1b5e73ad49"><g filter="url(#482eea2da4)"><rect x="-144" width="1728" fill="#000000" y="-80.999999" height="971.999992" fill-opacity="0.02"/></g></mask><clipPath id="3726e5e93f"><path d="M 0.84375 0.601562 L 89.644531 0.601562 L 89.644531 100 L 0.84375 100 Z M 0.84375 0.601562 " clip-rule="nonzero"/></clipPath><clipPath id="ce128a32a3"><rect x="0" width="91" y="0" height="101"/></clipPath><mask id="e6d1039bf6"><g filter="url(#482eea2da4)"><rect x="-144" width="1728" fill="#000000" y="-80.999999" height="971.999992" fill-opacity="0.02"/></g></mask><clipPath id="9a7854dde3"><path d="M 1.046875 0.121094 L 90 0.121094 L 90 99.480469 L 1.046875 99.480469 Z M 1.046875 0.121094 " clip-rule="nonzero"/></clipPath><clipPath id="443a22ee2d"><rect x="0" width="91" y="0" height="100"/></clipPath><mask id="f2ddf0ff14"><g filter="url(#482eea2da4)"><rect x="-144" width="1728" fill="#000000" y="-80.999999" height="971.999992" fill-opacity="0.02"/></g></mask><clipPath id="b001808605"><path d="M 1.046875 1 L 89.847656 1 L 89.847656 100 L 1.046875 100 Z M 1.046875 1 " clip-rule="nonzero"/></clipPath><clipPath id="358a321f41"><rect x="0" width="91" y="0" height="101"/></clipPath><mask id="f7445b4ff5"><g filter="url(#482eea2da4)"><rect x="-144" width="1728" fill="#000000" y="-80.999999" height="971.999992" fill-opacity="0.02"/></g></mask><clipPath id="ee729696ac"><path d="M 1.046875 1 L 90 1 L 90 100 L 1.046875 100 Z M 1.046875 1 " clip-rule="nonzero"/></clipPath><clipPath id="764b3842ed"><rect x="0" width="91" y="0" height="101"/></clipPath><mask id="d9d4045011"><g filter="url(#482eea2da4)"><rect x="-144" width="1728" fill="#000000" y="-80.999999" height="971.999992" fill-opacity="0.02"/></g></mask><clipPath id="20eb571a6f"><path d="M 1.046875 0.398438 L 89.847656 0.398438 L 89.847656 100 L 1.046875 100 Z M 1.046875 0.398438 " clip-rule="nonzero"/></clipPath><clipPath id="039e3b715b"><rect x="0" width="91" y="0" height="100"/></clipPath><mask id="cdd23bd3d7"><g filter="url(#482eea2da4)"><rect x="-144" width="1728" fill="#000000" y="-80.999999" height="971.999992" fill-opacity="0.02"/></g></mask><clipPath id="de929f1620"><path d="M 1.046875 0.320312 L 90 0.320312 L 90 99.679688 L 1.046875 99.679688 Z M 1.046875 0.320312 " clip-rule="nonzero"/></clipPath><clipPath id="d3742440ec"><rect x="0" width="91" y="0" height="100"/></clipPath><mask id="544f2b4c4d"><g filter="url(#482eea2da4)"><rect x="-144" width="1728" fill="#000000" y="-80.999999" height="971.999992" fill-opacity="0.02"/></g></mask><clipPath id="7a06c03c9e"><path d="M 1.046875 0 L 89.847656 0 L 89.847656 99.601562 L 1.046875 99.601562 Z M 1.046875 0 " clip-rule="nonzero"/></clipPath><clipPath id="0663c97935"><rect x="0" width="91" y="0" height="100"/></clipPath><mask id="88c4a3d25e"><g filter="url(#482eea2da4)"><rect x="-144" width="1728" fill="#000000" y="-80.999999" height="971.999992" fill-opacity="0.02"/></g></mask><clipPath id="67d8590d79"><path d="M 1.046875 1 L 90 1 L 90 100 L 1.046875 100 Z M 1.046875 1 " clip-rule="nonzero"/></clipPath><clipPath id="c98b75bddf"><rect x="0" width="91" y="0" height="101"/></clipPath><mask id="c1a70c460e"><g filter="url(#482eea2da4)"><rect x="-144" width="1728" fill="#000000" y="-80.999999" height="971.999992" fill-opacity="0.02"/></g></mask><clipPath id="69e9fa7fc4"><path d="M 1.046875 0.601562 L 89.847656 0.601562 L 89.847656 100 L 1.046875 100 Z M 1.046875 0.601562 " clip-rule="nonzero"/></clipPath><clipPath id="557a61d1b3"><rect x="0" width="91" y="0" height="101"/></clipPath><mask id="2097055892"><g filter="url(#482eea2da4)"><rect x="-144" width="1728" fill="#000000" y="-80.999999" height="971.999992" fill-opacity="0.02"/></g></mask><clipPath id="77fe456df6"><path d="M 1.191406 0.121094 L 90 0.121094 L 90 99.480469 L 1.191406 99.480469 Z M 1.191406 0.121094 " clip-rule="nonzero"/></clipPath><clipPath id="a68eaaae41"><rect x="0" width="90" y="0" height="100"/></clipPath><mask id="a838f68280"><g filter="url(#482eea2da4)"><rect x="-144" width="1728" fill="#000000" y="-80.999999" height="971.999992" fill-opacity="0.02"/></g></mask><clipPath id="b955cf2db9"><path d="M 1.191406 1 L 89.992188 1 L 89.992188 100 L 1.191406 100 Z M 1.191406 1 " clip-rule="nonzero"/></clipPath><clipPath id="527c8059cb"><rect x="0" width="90" y="0" height="101"/></clipPath><mask id="597ca4d846"><g filter="url(#482eea2da4)"><rect x="-144" width="1728" fill="#000000" y="-80.999999" height="971.999992" fill-opacity="0.02"/></g></mask><clipPath id="0ccf103f25"><path d="M 1.191406 1 L 90 1 L 90 100 L 1.191406 100 Z M 1.191406 1 " clip-rule="nonzero"/></clipPath><clipPath id="603139f3d7"><rect x="0" width="90" y="0" height="101"/></clipPath><mask id="ef8867fcad"><g filter="url(#482eea2da4)"><rect x="-144" width="1728" fill="#000000" y="-80.999999" height="971.999992" fill-opacity="0.02"/></g></mask><clipPath id="2fcb6dedd0"><path d="M 1.191406 0.398438 L 89.992188 0.398438 L 89.992188 100 L 1.191406 100 Z M 1.191406 0.398438 " clip-rule="nonzero"/></clipPath><clipPath id="b15ca87dd5"><rect x="0" width="90" y="0" height="100"/></clipPath><mask id="145011b77d"><g filter="url(#482eea2da4)"><rect x="-144" width="1728" fill="#000000" y="-80.999999" height="971.999992" fill-opacity="0.02"/></g></mask><clipPath id="f58e7d5a6f"><path d="M 1.191406 0.320312 L 90 0.320312 L 90 99.679688 L 1.191406 99.679688 Z M 1.191406 0.320312 " clip-rule="nonzero"/></clipPath><clipPath id="4a0a99f614"><rect x="0" width="90" y="0" height="100"/></clipPath><mask id="c38dbf7423"><g filter="url(#482eea2da4)"><rect x="-144" width="1728" fill="#000000" y="-80.999999" height="971.999992" fill-opacity="0.02"/></g></mask><clipPath id="45459acd03"><path d="M 1.191406 0 L 89.992188 0 L 89.992188 99.601562 L 1.191406 99.601562 Z M 1.191406 0 " clip-rule="nonzero"/></clipPath><clipPath id="07574d7234"><rect x="0" width="90" y="0" height="100"/></clipPath><mask id="b5aa7138e4"><g filter="url(#482eea2da4)"><rect x="-144" width="1728" fill="#000000" y="-80.999999" height="971.999992" fill-opacity="0.02"/></g></mask><clipPath id="838e8f5d9d"><path d="M 1.191406 1 L 90 1 L 90 100 L 1.191406 100 Z M 1.191406 1 " clip-rule="nonzero"/></clipPath><clipPath id="1730d7b702"><rect x="0" width="90" y="0" height="101"/></clipPath><mask id="abd7f7f7f7"><g filter="url(#482eea2da4)"><rect x="-144" width="1728" fill="#000000" y="-80.999999" height="971.999992" fill-opacity="0.02"/></g></mask><clipPath id="018bf593d6"><path d="M 1.191406 0.601562 L 89.992188 0.601562 L 89.992188 100 L 1.191406 100 Z M 1.191406 0.601562 " clip-rule="nonzero"/></clipPath><clipPath id="5d8570d1a7"><rect x="0" width="90" y="0" height="101"/></clipPath><clipPath id="6167e6ccdd"><path d="M 0 0 L 600.394531 0 L 600.394531 810 L 0 810 Z M 0 0 " clip-rule="nonzero"/></clipPath></defs><g mask="url(#7c008682c7)"><g transform="matrix(1, 0, 0, 1, 591, 705)"><g clip-path="url(#9156e055e4)"><g clip-path="url(#bf61a05d33)"><path fill="#0057ff" d="M 9.792969 55.804688 L 73.859375 92.792969 C 76.035156 94.050781 78.632812 94.050781 80.808594 92.792969 C 82.984375 91.535156 84.285156 89.289062 84.285156 86.777344 L 84.285156 12.800781 C 84.285156 10.285156 82.984375 8.035156 80.808594 6.78125 C 78.632812 5.523438 76.035156 5.523438 73.859375 6.78125 L 9.792969 43.769531 C 7.617188 45.027344 6.320312 47.273438 6.320312 49.785156 C 6.320312 52.300781 7.617188 54.550781 9.792969 55.804688 Z M 89.703125 12.800781 L 89.703125 86.777344 C 89.703125 91.246094 87.390625 95.25 83.519531 97.488281 C 79.644531 99.722656 75.019531 99.722656 71.148438 97.488281 L 7.082031 60.5 C 3.210938 58.261719 0.898438 54.257812 0.898438 49.785156 C 0.898438 45.3125 3.210938 41.3125 7.082031 39.074219 L 71.148438 2.085938 C 75.019531 -0.148438 79.644531 -0.148438 83.519531 2.085938 C 87.390625 4.320312 89.703125 8.328125 89.703125 12.800781 " fill-opacity="1" fill-rule="nonzero"/></g></g></g></g><g mask="url(#5f868c9d87)"><g transform="matrix(1, 0, 0, 1, 591, 604)"><g clip-path="url(#0d6ce6ec1b)"><g clip-path="url(#bfc419dcc5)"><path fill="#0057ff" d="M 80.773438 56.601562 L 16.707031 93.589844 C 14.53125 94.847656 11.933594 94.847656 9.757812 93.589844 C 7.582031 92.332031 6.285156 90.085938 6.285156 87.574219 L 6.285156 13.597656 C 6.285156 11.082031 7.582031 8.832031 9.757812 7.578125 C 11.933594 6.320312 14.53125 6.320312 16.707031 7.578125 L 80.773438 44.566406 C 82.949219 45.824219 84.25 48.070312 84.25 50.582031 C 84.25 53.097656 82.949219 55.347656 80.773438 56.601562 Z M 0.863281 13.597656 L 0.863281 87.574219 C 0.863281 92.042969 3.175781 96.046875 7.046875 98.285156 C 10.921875 100.519531 15.546875 100.519531 19.417969 98.285156 L 83.484375 61.296875 C 87.355469 59.058594 89.667969 55.054688 89.667969 50.582031 C 89.667969 46.109375 87.355469 42.109375 83.484375 39.871094 L 19.417969 2.882812 C 15.546875 0.648438 10.921875 0.648438 7.050781 2.882812 C 3.175781 5.117188 0.863281 9.125 0.863281 13.597656 " fill-opacity="1" fill-rule="nonzero"/></g></g></g></g><g mask="url(#cc2edfae70)"><g transform="matrix(1, 0, 0, 1, 591, 504)"><g clip-path="url(#b69f749a57)"><g clip-path="url(#7407add085)"><path fill="#0057ff" d="M 9.792969 56.398438 L 73.859375 93.386719 C 76.035156 94.644531 78.632812 94.644531 80.808594 93.386719 C 82.984375 92.128906 84.285156 89.882812 84.285156 87.371094 L 84.285156 13.394531 C 84.285156 10.878906 82.984375 8.628906 80.808594 7.375 C 78.632812 6.117188 76.035156 6.117188 73.859375 7.375 L 9.792969 44.363281 C 7.617188 45.621094 6.320312 47.867188 6.320312 50.378906 C 6.320312 52.894531 7.617188 55.144531 9.792969 56.398438 Z M 89.703125 13.394531 L 89.703125 87.371094 C 89.703125 91.839844 87.390625 95.84375 83.519531 98.082031 C 79.644531 100.316406 75.019531 100.316406 71.148438 98.082031 L 7.082031 61.09375 C 3.210938 58.855469 0.898438 54.851562 0.898438 50.378906 C 0.898438 45.910156 3.210938 41.90625 7.082031 39.667969 L 71.148438 2.679688 C 75.019531 0.445312 79.644531 0.445312 83.519531 2.679688 C 87.390625 4.914062 89.703125 8.921875 89.703125 13.394531 " fill-opacity="1" fill-rule="nonzero"/></g></g></g></g><g mask="url(#cfec807e1c)"><g transform="matrix(1, 0, 0, 1, 591, 404)"><g clip-path="url(#7506744466)"><g clip-path="url(#d599a42f38)"><path fill="#0057ff" d="M 80.773438 56.195312 L 16.707031 93.183594 C 14.53125 94.441406 11.933594 94.441406 9.757812 93.183594 C 7.582031 91.925781 6.285156 89.679688 6.285156 87.167969 L 6.285156 13.191406 C 6.285156 10.675781 7.582031 8.425781 9.757812 7.171875 C 11.933594 5.914062 14.53125 5.914062 16.707031 7.171875 L 80.773438 44.160156 C 82.949219 45.417969 84.25 47.664062 84.25 50.175781 C 84.25 52.691406 82.949219 54.941406 80.773438 56.195312 Z M 0.863281 13.191406 L 0.863281 87.167969 C 0.863281 91.636719 3.175781 95.640625 7.046875 97.878906 C 10.921875 100.113281 15.546875 100.113281 19.417969 97.878906 L 83.484375 60.890625 C 87.355469 58.652344 89.667969 54.648438 89.667969 50.175781 C 89.667969 45.707031 87.355469 41.703125 83.484375 39.464844 L 19.417969 2.476562 C 15.546875 0.242188 10.921875 0.242188 7.050781 2.476562 C 3.175781 4.710938 0.863281 8.71875 0.863281 13.191406 " fill-opacity="1" fill-rule="nonzero"/></g></g></g></g><g mask="url(#ec3ee69181)"><g transform="matrix(1, 0, 0, 1, 591, 304)"><g clip-path="url(#834d036bc1)"><g clip-path="url(#6527706892)"><path fill="#0057ff" d="M 9.792969 55.992188 L 73.859375 92.980469 C 76.035156 94.238281 78.632812 94.238281 80.808594 92.980469 C 82.984375 91.722656 84.285156 89.476562 84.285156 86.964844 L 84.285156 12.988281 C 84.285156 10.472656 82.984375 8.226562 80.808594 6.96875 C 78.632812 5.710938 76.035156 5.710938 73.859375 6.96875 L 9.792969 43.957031 C 7.617188 45.214844 6.320312 47.460938 6.320312 49.972656 C 6.320312 52.488281 7.617188 54.738281 9.792969 55.992188 Z M 89.703125 12.988281 L 89.703125 86.964844 C 89.703125 91.433594 87.390625 95.4375 83.519531 97.675781 C 79.644531 99.910156 75.019531 99.910156 71.148438 97.675781 L 7.082031 60.6875 C 3.210938 58.449219 0.898438 54.445312 0.898438 49.972656 C 0.898438 45.503906 3.210938 41.5 7.082031 39.261719 L 71.148438 2.273438 C 75.019531 0.0390625 79.644531 0.0390625 83.519531 2.273438 C 87.390625 4.511719 89.703125 8.515625 89.703125 12.988281 " fill-opacity="1" fill-rule="nonzero"/></g></g></g></g><g mask="url(#917d08fd33)"><g transform="matrix(1, 0, 0, 1, 591, 204)"><g clip-path="url(#d72f5829f5)"><g clip-path="url(#a2b5c31e37)"><path fill="#0057ff" d="M 80.773438 55.789062 L 16.707031 92.777344 C 14.53125 94.035156 11.933594 94.035156 9.757812 92.777344 C 7.582031 91.519531 6.285156 89.273438 6.285156 86.761719 L 6.285156 12.785156 C 6.285156 10.269531 7.582031 8.023438 9.757812 6.765625 C 11.933594 5.507812 14.53125 5.507812 16.707031 6.765625 L 80.773438 43.753906 C 82.949219 45.011719 84.25 47.257812 84.25 49.769531 C 84.25 52.285156 82.949219 54.535156 80.773438 55.789062 Z M 0.863281 12.785156 L 0.863281 86.761719 C 0.863281 91.230469 3.175781 95.234375 7.046875 97.472656 C 10.921875 99.707031 15.546875 99.707031 19.417969 97.472656 L 83.484375 60.484375 C 87.355469 58.246094 89.667969 54.242188 89.667969 49.769531 C 89.667969 45.300781 87.355469 41.296875 83.484375 39.058594 L 19.417969 2.070312 C 15.546875 -0.164062 10.921875 -0.164062 7.050781 2.070312 C 3.175781 4.308594 0.863281 8.3125 0.863281 12.785156 " fill-opacity="1" fill-rule="nonzero"/></g></g></g></g><g mask="url(#9fc6cb77d6)"><g transform="matrix(1, 0, 0, 1, 591, 103)"><g clip-path="url(#b502c56b16)"><g clip-path="url(#93a905a9b8)"><path fill="#0057ff" d="M 9.792969 56.585938 L 73.859375 93.574219 C 76.035156 94.832031 78.632812 94.832031 80.808594 93.574219 C 82.984375 92.316406 84.285156 90.070312 84.285156 87.558594 L 84.285156 13.582031 C 84.285156 11.066406 82.984375 8.820312 80.808594 7.5625 C 78.632812 6.304688 76.035156 6.304688 73.859375 7.5625 L 9.792969 44.550781 C 7.617188 45.808594 6.320312 48.054688 6.320312 50.566406 C 6.320312 53.082031 7.617188 55.332031 9.792969 56.585938 Z M 89.703125 13.582031 L 89.703125 87.558594 C 89.703125 92.027344 87.390625 96.03125 83.519531 98.269531 C 79.644531 100.503906 75.019531 100.503906 71.148438 98.269531 L 7.082031 61.28125 C 3.210938 59.042969 0.898438 55.039062 0.898438 50.566406 C 0.898438 46.097656 3.210938 42.09375 7.082031 39.855469 L 71.148438 2.867188 C 75.019531 0.632812 79.644531 0.632812 83.519531 2.867188 C 87.390625 5.105469 89.703125 9.109375 89.703125 13.582031 " fill-opacity="1" fill-rule="nonzero"/></g></g></g></g><g mask="url(#b87e27b255)"><g transform="matrix(1, 0, 0, 1, 591, 3)"><g clip-path="url(#369f041a7c)"><g clip-path="url(#d3071d500d)"><path fill="#0057ff" d="M 80.773438 56.382812 L 16.707031 93.371094 C 14.53125 94.628906 11.933594 94.628906 9.757812 93.371094 C 7.582031 92.113281 6.285156 89.867188 6.285156 87.355469 L 6.285156 13.378906 C 6.285156 10.863281 7.582031 8.617188 9.757812 7.359375 C 11.933594 6.101562 14.53125 6.101562 16.707031 7.359375 L 80.773438 44.347656 C 82.949219 45.605469 84.25 47.851562 84.25 50.367188 C 84.25 52.878906 82.949219 55.128906 80.773438 56.382812 Z M 0.863281 13.378906 L 0.863281 87.355469 C 0.863281 91.824219 3.175781 95.828125 7.046875 98.066406 C 10.921875 100.300781 15.546875 100.300781 19.417969 98.066406 L 83.484375 61.078125 C 87.355469 58.839844 89.667969 54.835938 89.667969 50.367188 C 89.667969 50.367188 89.667969 50.367188 89.667969 50.363281 C 89.667969 45.894531 87.355469 41.890625 83.484375 39.652344 L 19.417969 2.664062 C 15.546875 0.429688 10.921875 0.429688 7.050781 2.664062 C 3.175781 4.902344 0.863281 8.90625 0.863281 13.378906 " fill-opacity="1" fill-rule="nonzero"/></g></g></g></g><g mask="url(#d363d1efa2)"><g transform="matrix(1, 0, 0, 1, 699, 705)"><g clip-path="url(#4b01cf2a9f)"><g clip-path="url(#f5ff3b2a89)"><path fill="#0057ff" d="M 9.9375 55.804688 L 74.003906 92.792969 C 76.179688 94.050781 78.777344 94.050781 80.953125 92.792969 C 83.128906 91.535156 84.425781 89.289062 84.425781 86.777344 L 84.425781 12.800781 C 84.425781 10.285156 83.128906 8.035156 80.953125 6.78125 C 78.777344 5.523438 76.179688 5.523438 74.003906 6.78125 L 9.9375 43.769531 C 7.761719 45.027344 6.460938 47.273438 6.460938 49.785156 C 6.460938 52.300781 7.761719 54.550781 9.9375 55.804688 Z M 89.847656 12.800781 L 89.847656 86.777344 C 89.847656 91.246094 87.535156 95.25 83.664062 97.488281 C 79.789062 99.722656 75.164062 99.722656 71.292969 97.488281 L 7.226562 60.5 C 3.355469 58.261719 1.042969 54.257812 1.042969 49.785156 C 1.042969 45.3125 3.355469 41.3125 7.226562 39.074219 L 71.292969 2.085938 C 75.164062 -0.148438 79.789062 -0.148438 83.660156 2.085938 C 87.535156 4.320312 89.847656 8.328125 89.847656 12.800781 " fill-opacity="1" fill-rule="nonzero"/></g></g></g></g><g mask="url(#bf32386825)"><g transform="matrix(1, 0, 0, 1, 699, 604)"><g clip-path="url(#a162f82dd4)"><g clip-path="url(#0ac016fa4f)"><path fill="#0057ff" d="M 80.917969 56.601562 L 16.851562 93.589844 C 14.675781 94.847656 12.078125 94.847656 9.902344 93.589844 C 7.726562 92.332031 6.425781 90.085938 6.425781 87.574219 L 6.425781 13.597656 C 6.425781 11.082031 7.726562 8.832031 9.902344 7.578125 C 12.078125 6.320312 14.675781 6.320312 16.851562 7.578125 L 80.917969 44.566406 C 83.09375 45.824219 84.390625 48.070312 84.390625 50.582031 C 84.390625 53.097656 83.09375 55.347656 80.917969 56.601562 Z M 1.007812 13.597656 L 1.007812 87.574219 C 1.007812 92.042969 3.320312 96.046875 7.191406 98.285156 C 11.066406 100.519531 15.691406 100.519531 19.5625 98.285156 L 83.628906 61.296875 C 87.5 59.058594 89.8125 55.054688 89.8125 50.582031 C 89.8125 46.109375 87.5 42.109375 83.628906 39.871094 L 19.5625 2.882812 C 15.691406 0.648438 11.066406 0.648438 7.191406 2.882812 C 3.320312 5.117188 1.007812 9.125 1.007812 13.597656 " fill-opacity="1" fill-rule="nonzero"/></g></g></g></g><g mask="url(#890e78552e)"><g transform="matrix(1, 0, 0, 1, 699, 504)"><g clip-path="url(#4d9cb7e244)"><g clip-path="url(#1ec0783bac)"><path fill="#0057ff" d="M 9.9375 56.398438 L 74.003906 93.386719 C 76.179688 94.644531 78.777344 94.644531 80.953125 93.386719 C 83.128906 92.128906 84.425781 89.882812 84.425781 87.371094 L 84.425781 13.394531 C 84.425781 10.878906 83.128906 8.628906 80.953125 7.375 C 78.777344 6.117188 76.179688 6.117188 74.003906 7.375 L 9.9375 44.363281 C 7.761719 45.621094 6.460938 47.867188 6.460938 50.378906 C 6.460938 52.894531 7.761719 55.144531 9.9375 56.398438 Z M 89.847656 13.394531 L 89.847656 87.371094 C 89.847656 91.839844 87.535156 95.84375 83.664062 98.082031 C 79.789062 100.316406 75.164062 100.316406 71.292969 98.082031 L 7.226562 61.09375 C 3.355469 58.855469 1.042969 54.851562 1.042969 50.378906 C 1.042969 45.910156 3.355469 41.90625 7.226562 39.667969 L 71.292969 2.679688 C 75.164062 0.445312 79.789062 0.445312 83.660156 2.679688 C 87.535156 4.914062 89.847656 8.921875 89.847656 13.394531 " fill-opacity="1" fill-rule="nonzero"/></g></g></g></g><g mask="url(#753bf6ee21)"><g transform="matrix(1, 0, 0, 1, 699, 404)"><g clip-path="url(#99f867cedf)"><g clip-path="url(#5f7ec6c9f8)"><path fill="#0057ff" d="M 80.917969 56.195312 L 16.851562 93.183594 C 14.675781 94.441406 12.078125 94.441406 9.902344 93.183594 C 7.726562 91.925781 6.425781 89.679688 6.425781 87.167969 L 6.425781 13.191406 C 6.425781 10.675781 7.726562 8.425781 9.902344 7.171875 C 12.078125 5.914062 14.675781 5.914062 16.851562 7.171875 L 80.917969 44.160156 C 83.09375 45.417969 84.390625 47.664062 84.390625 50.175781 C 84.390625 52.691406 83.09375 54.941406 80.917969 56.195312 Z M 1.007812 13.191406 L 1.007812 87.167969 C 1.007812 91.636719 3.320312 95.640625 7.191406 97.878906 C 11.066406 100.113281 15.691406 100.113281 19.5625 97.878906 L 83.628906 60.890625 C 87.5 58.652344 89.8125 54.648438 89.8125 50.175781 C 89.8125 45.707031 87.5 41.703125 83.628906 39.464844 L 19.5625 2.476562 C 15.691406 0.242188 11.066406 0.242188 7.191406 2.476562 C 3.320312 4.710938 1.007812 8.71875 1.007812 13.191406 " fill-opacity="1" fill-rule="nonzero"/></g></g></g></g><g mask="url(#7146aad9f2)"><g transform="matrix(1, 0, 0, 1, 699, 304)"><g clip-path="url(#fe3bd42c77)"><g clip-path="url(#ba1958d87d)"><path fill="#0057ff" d="M 9.9375 55.992188 L 74.003906 92.980469 C 76.179688 94.238281 78.777344 94.238281 80.953125 92.980469 C 83.128906 91.722656 84.425781 89.476562 84.425781 86.964844 L 84.425781 12.988281 C 84.425781 10.472656 83.128906 8.226562 80.953125 6.96875 C 78.777344 5.710938 76.179688 5.710938 74.003906 6.96875 L 9.9375 43.957031 C 7.761719 45.214844 6.460938 47.460938 6.460938 49.972656 C 6.460938 52.488281 7.761719 54.738281 9.9375 55.992188 Z M 89.847656 12.988281 L 89.847656 86.964844 C 89.847656 91.433594 87.535156 95.4375 83.664062 97.675781 C 79.789062 99.910156 75.164062 99.910156 71.292969 97.675781 L 7.226562 60.6875 C 3.355469 58.449219 1.042969 54.445312 1.042969 49.972656 C 1.042969 45.503906 3.355469 41.5 7.226562 39.261719 L 71.292969 2.273438 C 75.164062 0.0390625 79.789062 0.0390625 83.660156 2.273438 C 87.535156 4.511719 89.847656 8.515625 89.847656 12.988281 " fill-opacity="1" fill-rule="nonzero"/></g></g></g></g><g mask="url(#b2ea2cc83d)"><g transform="matrix(1, 0, 0, 1, 699, 204)"><g clip-path="url(#953d82993b)"><g clip-path="url(#c02a9fa99c)"><path fill="#0057ff" d="M 80.917969 55.789062 L 16.851562 92.777344 C 14.675781 94.035156 12.078125 94.035156 9.902344 92.777344 C 7.726562 91.519531 6.425781 89.273438 6.425781 86.761719 L 6.425781 12.785156 C 6.425781 10.269531 7.726562 8.023438 9.902344 6.765625 C 12.078125 5.507812 14.675781 5.507812 16.851562 6.765625 L 80.917969 43.753906 C 83.09375 45.011719 84.390625 47.257812 84.390625 49.769531 C 84.390625 52.285156 83.09375 54.535156 80.917969 55.789062 Z M 1.007812 12.785156 L 1.007812 86.761719 C 1.007812 91.230469 3.320312 95.234375 7.191406 97.472656 C 11.066406 99.707031 15.691406 99.707031 19.5625 97.472656 L 83.628906 60.484375 C 87.5 58.246094 89.8125 54.242188 89.8125 49.769531 C 89.8125 45.300781 87.5 41.296875 83.628906 39.058594 L 19.5625 2.070312 C 15.691406 -0.164062 11.066406 -0.164062 7.191406 2.070312 C 3.320312 4.308594 1.007812 8.3125 1.007812 12.785156 " fill-opacity="1" fill-rule="nonzero"/></g></g></g></g><g mask="url(#d8552fcba5)"><g transform="matrix(1, 0, 0, 1, 699, 103)"><g clip-path="url(#a07f6b43ee)"><g clip-path="url(#5c0dd4154e)"><path fill="#0057ff" d="M 9.9375 56.585938 L 74.003906 93.574219 C 76.179688 94.832031 78.777344 94.832031 80.953125 93.574219 C 83.128906 92.316406 84.425781 90.070312 84.425781 87.558594 L 84.425781 13.582031 C 84.425781 11.066406 83.128906 8.820312 80.953125 7.5625 C 78.777344 6.304688 76.179688 6.304688 74.003906 7.5625 L 9.9375 44.550781 C 7.761719 45.808594 6.460938 48.054688 6.460938 50.566406 C 6.460938 53.082031 7.761719 55.332031 9.9375 56.585938 Z M 89.847656 13.582031 L 89.847656 87.558594 C 89.847656 92.027344 87.535156 96.03125 83.664062 98.269531 C 79.789062 100.503906 75.164062 100.503906 71.292969 98.269531 L 7.226562 61.28125 C 3.355469 59.042969 1.042969 55.039062 1.042969 50.566406 C 1.042969 46.097656 3.355469 42.09375 7.226562 39.855469 L 71.292969 2.867188 C 75.164062 0.632812 79.789062 0.632812 83.660156 2.867188 C 87.535156 5.105469 89.847656 9.109375 89.847656 13.582031 " fill-opacity="1" fill-rule="nonzero"/></g></g></g></g><g mask="url(#fcd06f459a)"><g transform="matrix(1, 0, 0, 1, 699, 3)"><g clip-path="url(#b7479684f3)"><g clip-path="url(#a9b81014bd)"><path fill="#0057ff" d="M 80.917969 56.382812 L 16.851562 93.371094 C 14.675781 94.628906 12.078125 94.628906 9.902344 93.371094 C 7.726562 92.113281 6.425781 89.867188 6.425781 87.355469 L 6.425781 13.378906 C 6.425781 10.863281 7.726562 8.617188 9.902344 7.359375 C 12.078125 6.101562 14.675781 6.101562 16.851562 7.359375 L 80.917969 44.347656 C 83.09375 45.605469 84.390625 47.851562 84.390625 50.367188 C 84.390625 52.878906 83.09375 55.128906 80.917969 56.382812 Z M 1.007812 13.378906 L 1.007812 87.355469 C 1.007812 91.824219 3.320312 95.828125 7.191406 98.066406 C 11.066406 100.300781 15.691406 100.300781 19.5625 98.066406 L 83.628906 61.078125 C 87.5 58.839844 89.8125 54.835938 89.8125 50.367188 C 89.8125 50.367188 89.8125 50.367188 89.8125 50.363281 C 89.8125 45.894531 87.5 41.890625 83.628906 39.652344 L 19.5625 2.664062 C 15.691406 0.429688 11.066406 0.429688 7.191406 2.664062 C 3.320312 4.902344 1.007812 8.90625 1.007812 13.378906 " fill-opacity="1" fill-rule="nonzero"/></g></g></g></g><g mask="url(#f42a55dccf)"><g transform="matrix(1, 0, 0, 1, 808, 705)"><g clip-path="url(#3740434c98)"><g clip-path="url(#21f18eec22)"><path fill="#0057ff" d="M 10.140625 55.804688 L 74.207031 92.792969 C 76.378906 94.050781 78.980469 94.050781 81.15625 92.792969 C 83.332031 91.535156 84.628906 89.289062 84.628906 86.777344 L 84.628906 12.800781 C 84.628906 10.285156 83.332031 8.035156 81.152344 6.78125 C 78.980469 5.523438 76.378906 5.523438 74.207031 6.78125 L 10.140625 43.769531 C 7.964844 45.027344 6.664062 47.273438 6.664062 49.785156 C 6.664062 52.300781 7.964844 54.550781 10.140625 55.804688 Z M 90.050781 12.800781 L 90.050781 86.777344 C 90.050781 91.246094 87.738281 95.25 83.867188 97.488281 C 79.992188 99.722656 75.367188 99.722656 71.496094 97.488281 L 7.429688 60.5 C 3.558594 58.261719 1.246094 54.257812 1.246094 49.785156 C 1.246094 45.3125 3.558594 41.3125 7.429688 39.074219 L 71.496094 2.085938 C 75.367188 -0.148438 79.992188 -0.148438 83.863281 2.085938 C 87.738281 4.320312 90.050781 8.328125 90.050781 12.800781 " fill-opacity="1" fill-rule="nonzero"/></g></g></g></g><g mask="url(#a6aeeee7f4)"><g transform="matrix(1, 0, 0, 1, 808, 604)"><g clip-path="url(#a936a4a777)"><g clip-path="url(#4409237260)"><path fill="#0057ff" d="M 81.121094 56.601562 L 17.054688 93.589844 C 14.878906 94.847656 12.28125 94.847656 10.105469 93.589844 C 7.929688 92.332031 6.628906 90.085938 6.628906 87.574219 L 6.628906 13.597656 C 6.628906 11.082031 7.929688 8.832031 10.105469 7.578125 C 12.28125 6.320312 14.878906 6.320312 17.054688 7.578125 L 81.121094 44.566406 C 83.296875 45.824219 84.59375 48.070312 84.59375 50.582031 C 84.59375 53.097656 83.296875 55.347656 81.121094 56.601562 Z M 1.210938 13.597656 L 1.210938 87.574219 C 1.210938 92.042969 3.523438 96.046875 7.394531 98.285156 C 11.265625 100.519531 15.890625 100.519531 19.765625 98.285156 L 83.832031 61.296875 C 87.703125 59.058594 90.015625 55.054688 90.015625 50.582031 C 90.015625 46.109375 87.703125 42.109375 83.832031 39.871094 L 19.765625 2.882812 C 15.890625 0.648438 11.269531 0.648438 7.394531 2.882812 C 3.523438 5.117188 1.210938 9.125 1.210938 13.597656 " fill-opacity="1" fill-rule="nonzero"/></g></g></g></g><g mask="url(#47aa6c4ad3)"><g transform="matrix(1, 0, 0, 1, 808, 504)"><g clip-path="url(#d17310d7ee)"><g clip-path="url(#541400c347)"><path fill="#0057ff" d="M 10.140625 56.398438 L 74.207031 93.386719 C 76.378906 94.644531 78.980469 94.644531 81.15625 93.386719 C 83.332031 92.128906 84.628906 89.882812 84.628906 87.371094 L 84.628906 13.394531 C 84.628906 10.878906 83.332031 8.628906 81.152344 7.375 C 78.980469 6.117188 76.378906 6.117188 74.207031 7.375 L 10.140625 44.363281 C 7.964844 45.621094 6.664062 47.867188 6.664062 50.378906 C 6.664062 52.894531 7.964844 55.144531 10.140625 56.398438 Z M 90.050781 13.394531 L 90.050781 87.371094 C 90.050781 91.839844 87.738281 95.84375 83.867188 98.082031 C 79.992188 100.316406 75.367188 100.316406 71.496094 98.082031 L 7.429688 61.09375 C 3.558594 58.855469 1.246094 54.851562 1.246094 50.378906 C 1.246094 45.910156 3.558594 41.90625 7.429688 39.667969 L 71.496094 2.679688 C 75.367188 0.445312 79.992188 0.445312 83.863281 2.679688 C 87.738281 4.914062 90.050781 8.921875 90.050781 13.394531 " fill-opacity="1" fill-rule="nonzero"/></g></g></g></g><g mask="url(#6890abc3e0)"><g transform="matrix(1, 0, 0, 1, 808, 404)"><g clip-path="url(#cafd9c8fa5)"><g clip-path="url(#bf7185cab1)"><path fill="#0057ff" d="M 81.121094 56.195312 L 17.054688 93.183594 C 14.878906 94.441406 12.28125 94.441406 10.105469 93.183594 C 7.929688 91.925781 6.628906 89.679688 6.628906 87.167969 L 6.628906 13.191406 C 6.628906 10.675781 7.929688 8.425781 10.105469 7.171875 C 12.28125 5.914062 14.878906 5.914062 17.054688 7.171875 L 81.121094 44.160156 C 83.296875 45.417969 84.59375 47.664062 84.59375 50.175781 C 84.59375 52.691406 83.296875 54.941406 81.121094 56.195312 Z M 1.210938 13.191406 L 1.210938 87.167969 C 1.210938 91.636719 3.523438 95.640625 7.394531 97.878906 C 11.265625 100.113281 15.890625 100.113281 19.765625 97.878906 L 83.832031 60.890625 C 87.703125 58.652344 90.015625 54.648438 90.015625 50.175781 C 90.015625 45.707031 87.703125 41.703125 83.832031 39.464844 L 19.765625 2.476562 C 15.890625 0.242188 11.269531 0.242188 7.394531 2.476562 C 3.523438 4.710938 1.210938 8.71875 1.210938 13.191406 " fill-opacity="1" fill-rule="nonzero"/></g></g></g></g><g mask="url(#819deb544d)"><g transform="matrix(1, 0, 0, 1, 808, 304)"><g clip-path="url(#c811fd19a9)"><g clip-path="url(#4f9d370d10)"><path fill="#0057ff" d="M 10.140625 55.992188 L 74.207031 92.980469 C 76.378906 94.238281 78.980469 94.238281 81.15625 92.980469 C 83.332031 91.722656 84.628906 89.476562 84.628906 86.964844 L 84.628906 12.988281 C 84.628906 10.472656 83.332031 8.226562 81.152344 6.96875 C 78.980469 5.710938 76.378906 5.710938 74.207031 6.96875 L 10.140625 43.957031 C 7.964844 45.214844 6.664062 47.460938 6.664062 49.972656 C 6.664062 52.488281 7.964844 54.738281 10.140625 55.992188 Z M 90.050781 12.988281 L 90.050781 86.964844 C 90.050781 91.433594 87.738281 95.4375 83.867188 97.675781 C 79.992188 99.910156 75.367188 99.910156 71.496094 97.675781 L 7.429688 60.6875 C 3.558594 58.449219 1.246094 54.445312 1.246094 49.972656 C 1.246094 45.503906 3.558594 41.5 7.429688 39.261719 L 71.496094 2.273438 C 75.367188 0.0390625 79.992188 0.0390625 83.863281 2.273438 C 87.738281 4.511719 90.050781 8.515625 90.050781 12.988281 " fill-opacity="1" fill-rule="nonzero"/></g></g></g></g><g mask="url(#a8bb490a3a)"><g transform="matrix(1, 0, 0, 1, 808, 204)"><g clip-path="url(#d39d7656ce)"><g clip-path="url(#4101d2068a)"><path fill="#0057ff" d="M 81.121094 55.789062 L 17.054688 92.777344 C 14.878906 94.035156 12.28125 94.035156 10.105469 92.777344 C 7.929688 91.519531 6.628906 89.273438 6.628906 86.761719 L 6.628906 12.785156 C 6.628906 10.269531 7.929688 8.023438 10.105469 6.765625 C 12.28125 5.507812 14.878906 5.507812 17.054688 6.765625 L 81.121094 43.753906 C 83.296875 45.011719 84.59375 47.257812 84.59375 49.769531 C 84.59375 52.285156 83.296875 54.535156 81.121094 55.789062 Z M 1.210938 12.785156 L 1.210938 86.761719 C 1.210938 91.230469 3.523438 95.234375 7.394531 97.472656 C 11.265625 99.707031 15.890625 99.707031 19.765625 97.472656 L 83.832031 60.484375 C 87.703125 58.246094 90.015625 54.242188 90.015625 49.769531 C 90.015625 45.300781 87.703125 41.296875 83.832031 39.058594 L 19.765625 2.070312 C 15.890625 -0.164062 11.269531 -0.164062 7.394531 2.070312 C 3.523438 4.308594 1.210938 8.3125 1.210938 12.785156 " fill-opacity="1" fill-rule="nonzero"/></g></g></g></g><g mask="url(#074e30fad0)"><g transform="matrix(1, 0, 0, 1, 808, 103)"><g clip-path="url(#9d5dfaa83f)"><g clip-path="url(#baf8acc7bb)"><path fill="#0057ff" d="M 10.140625 56.585938 L 74.207031 93.574219 C 76.378906 94.832031 78.980469 94.832031 81.15625 93.574219 C 83.332031 92.316406 84.628906 90.070312 84.628906 87.558594 L 84.628906 13.582031 C 84.628906 11.066406 83.332031 8.820312 81.152344 7.5625 C 78.980469 6.304688 76.378906 6.304688 74.207031 7.5625 L 10.140625 44.550781 C 7.964844 45.808594 6.664062 48.054688 6.664062 50.566406 C 6.664062 53.082031 7.964844 55.332031 10.140625 56.585938 Z M 90.050781 13.582031 L 90.050781 87.558594 C 90.050781 92.027344 87.738281 96.03125 83.867188 98.269531 C 79.992188 100.503906 75.367188 100.503906 71.496094 98.269531 L 7.429688 61.28125 C 3.558594 59.042969 1.246094 55.039062 1.246094 50.566406 C 1.246094 46.097656 3.558594 42.09375 7.429688 39.855469 L 71.496094 2.867188 C 75.367188 0.632812 79.992188 0.632812 83.863281 2.867188 C 87.738281 5.105469 90.050781 9.109375 90.050781 13.582031 " fill-opacity="1" fill-rule="nonzero"/></g></g></g></g><g mask="url(#d26480348a)"><g transform="matrix(1, 0, 0, 1, 808, 3)"><g clip-path="url(#02f6026cb4)"><g clip-path="url(#73dbafd03b)"><path fill="#0057ff" d="M 81.121094 56.382812 L 17.054688 93.371094 C 14.878906 94.628906 12.28125 94.628906 10.105469 93.371094 C 7.929688 92.113281 6.628906 89.867188 6.628906 87.355469 L 6.628906 13.378906 C 6.628906 10.863281 7.929688 8.617188 10.105469 7.359375 C 12.28125 6.101562 14.878906 6.101562 17.054688 7.359375 L 81.121094 44.347656 C 83.296875 45.605469 84.59375 47.851562 84.59375 50.367188 C 84.59375 52.878906 83.296875 55.128906 81.121094 56.382812 Z M 1.210938 13.378906 L 1.210938 87.355469 C 1.210938 91.824219 3.523438 95.828125 7.394531 98.066406 C 11.265625 100.300781 15.890625 100.300781 19.765625 98.066406 L 83.832031 61.078125 C 87.703125 58.839844 90.015625 54.835938 90.015625 50.367188 C 90.015625 50.367188 90.015625 50.367188 90.015625 50.363281 C 90.015625 45.894531 87.703125 41.890625 83.832031 39.652344 L 19.765625 2.664062 C 15.890625 0.429688 11.269531 0.429688 7.394531 2.664062 C 3.523438 4.902344 1.210938 8.90625 1.210938 13.378906 " fill-opacity="1" fill-rule="nonzero"/></g></g></g></g><g mask="url(#68d435d9e4)"><g transform="matrix(1, 0, 0, 1, 917, 705)"><g clip-path="url(#831411d6da)"><g clip-path="url(#bcbd91a90c)"><path fill="#0057ff" d="M 9.28125 55.804688 L 73.347656 92.792969 C 75.523438 94.050781 78.121094 94.050781 80.300781 92.792969 C 82.472656 91.535156 83.773438 89.289062 83.773438 86.777344 L 83.773438 12.800781 C 83.773438 10.285156 82.472656 8.035156 80.296875 6.78125 C 78.121094 5.523438 75.523438 5.523438 73.347656 6.78125 L 9.28125 43.769531 C 7.109375 45.027344 5.808594 47.273438 5.808594 49.785156 C 5.808594 52.300781 7.109375 54.550781 9.28125 55.804688 Z M 89.191406 12.800781 L 89.191406 86.777344 C 89.191406 91.246094 86.878906 95.25 83.007812 97.488281 C 79.136719 99.722656 74.511719 99.722656 70.640625 97.488281 L 6.574219 60.5 C 2.703125 58.261719 0.390625 54.257812 0.390625 49.785156 C 0.390625 45.3125 2.703125 41.3125 6.574219 39.074219 L 70.640625 2.085938 C 74.511719 -0.148438 79.132812 -0.148438 83.007812 2.085938 C 86.878906 4.320312 89.191406 8.328125 89.191406 12.800781 " fill-opacity="1" fill-rule="nonzero"/></g></g></g></g><g mask="url(#6c0e24f222)"><g transform="matrix(1, 0, 0, 1, 917, 604)"><g clip-path="url(#22f2889b97)"><g clip-path="url(#af274f2a04)"><path fill="#0057ff" d="M 80.265625 56.601562 L 16.199219 93.589844 C 14.023438 94.847656 11.425781 94.847656 9.246094 93.589844 C 7.074219 92.332031 5.773438 90.085938 5.773438 87.574219 L 5.773438 13.597656 C 5.773438 11.082031 7.074219 8.832031 9.25 7.578125 C 11.425781 6.320312 14.023438 6.320312 16.199219 7.578125 L 80.265625 44.566406 C 82.4375 45.824219 83.738281 48.070312 83.738281 50.582031 C 83.738281 53.097656 82.4375 55.347656 80.265625 56.601562 Z M 0.355469 13.597656 L 0.355469 87.574219 C 0.355469 92.042969 2.667969 96.046875 6.539062 98.285156 C 10.410156 100.519531 15.035156 100.519531 18.90625 98.285156 L 82.972656 61.296875 C 86.84375 59.058594 89.15625 55.054688 89.15625 50.582031 C 89.15625 46.109375 86.84375 42.109375 82.972656 39.871094 L 18.90625 2.882812 C 15.035156 0.648438 10.414062 0.648438 6.539062 2.882812 C 2.667969 5.117188 0.355469 9.125 0.355469 13.597656 " fill-opacity="1" fill-rule="nonzero"/></g></g></g></g><g mask="url(#4bbe711b3a)"><g transform="matrix(1, 0, 0, 1, 917, 504)"><g clip-path="url(#b2decc6100)"><g clip-path="url(#112fce23a7)"><path fill="#0057ff" d="M 9.28125 56.398438 L 73.347656 93.386719 C 75.523438 94.644531 78.121094 94.644531 80.300781 93.386719 C 82.472656 92.128906 83.773438 89.882812 83.773438 87.371094 L 83.773438 13.394531 C 83.773438 10.878906 82.472656 8.628906 80.296875 7.375 C 78.121094 6.117188 75.523438 6.117188 73.347656 7.375 L 9.28125 44.363281 C 7.109375 45.621094 5.808594 47.867188 5.808594 50.378906 C 5.808594 52.894531 7.109375 55.144531 9.28125 56.398438 Z M 89.191406 13.394531 L 89.191406 87.371094 C 89.191406 91.839844 86.878906 95.84375 83.007812 98.082031 C 79.136719 100.316406 74.511719 100.316406 70.640625 98.082031 L 6.574219 61.09375 C 2.703125 58.855469 0.390625 54.851562 0.390625 50.378906 C 0.390625 45.910156 2.703125 41.90625 6.574219 39.667969 L 70.640625 2.679688 C 74.511719 0.445312 79.132812 0.445312 83.007812 2.679688 C 86.878906 4.914062 89.191406 8.921875 89.191406 13.394531 " fill-opacity="1" fill-rule="nonzero"/></g></g></g></g><g mask="url(#77d553f4f4)"><g transform="matrix(1, 0, 0, 1, 917, 404)"><g clip-path="url(#127cacc6e4)"><g clip-path="url(#0799a262d3)"><path fill="#0057ff" d="M 80.265625 56.195312 L 16.199219 93.183594 C 14.023438 94.441406 11.425781 94.441406 9.246094 93.183594 C 7.074219 91.925781 5.773438 89.679688 5.773438 87.167969 L 5.773438 13.191406 C 5.773438 10.675781 7.074219 8.425781 9.25 7.171875 C 11.425781 5.914062 14.023438 5.914062 16.199219 7.171875 L 80.265625 44.160156 C 82.4375 45.417969 83.738281 47.664062 83.738281 50.175781 C 83.738281 52.691406 82.4375 54.941406 80.265625 56.195312 Z M 0.355469 13.191406 L 0.355469 87.167969 C 0.355469 91.636719 2.667969 95.640625 6.539062 97.878906 C 10.410156 100.113281 15.035156 100.113281 18.90625 97.878906 L 82.972656 60.890625 C 86.84375 58.652344 89.15625 54.648438 89.15625 50.175781 C 89.15625 45.707031 86.84375 41.703125 82.972656 39.464844 L 18.90625 2.476562 C 15.035156 0.242188 10.414062 0.242188 6.539062 2.476562 C 2.667969 4.710938 0.355469 8.71875 0.355469 13.191406 " fill-opacity="1" fill-rule="nonzero"/></g></g></g></g><g mask="url(#11e3b9193b)"><g transform="matrix(1, 0, 0, 1, 917, 304)"><g clip-path="url(#23dbc95a4f)"><g clip-path="url(#870e2d9de0)"><path fill="#0057ff" d="M 9.28125 55.992188 L 73.347656 92.980469 C 75.523438 94.238281 78.121094 94.238281 80.300781 92.980469 C 82.472656 91.722656 83.773438 89.476562 83.773438 86.964844 L 83.773438 12.988281 C 83.773438 10.472656 82.472656 8.226562 80.296875 6.96875 C 78.121094 5.710938 75.523438 5.710938 73.347656 6.96875 L 9.28125 43.957031 C 7.109375 45.214844 5.808594 47.460938 5.808594 49.972656 C 5.808594 52.488281 7.109375 54.738281 9.28125 55.992188 Z M 89.191406 12.988281 L 89.191406 86.964844 C 89.191406 91.433594 86.878906 95.4375 83.007812 97.675781 C 79.136719 99.910156 74.511719 99.910156 70.640625 97.675781 L 6.574219 60.6875 C 2.703125 58.449219 0.390625 54.445312 0.390625 49.972656 C 0.390625 45.503906 2.703125 41.5 6.574219 39.261719 L 70.640625 2.273438 C 74.511719 0.0390625 79.132812 0.0390625 83.007812 2.273438 C 86.878906 4.511719 89.191406 8.515625 89.191406 12.988281 " fill-opacity="1" fill-rule="nonzero"/></g></g></g></g><g mask="url(#d61c01dc52)"><g transform="matrix(1, 0, 0, 1, 917, 204)"><g clip-path="url(#6891b99de7)"><g clip-path="url(#668c8bb441)"><path fill="#0057ff" d="M 80.265625 55.789062 L 16.199219 92.777344 C 14.023438 94.035156 11.425781 94.035156 9.246094 92.777344 C 7.074219 91.519531 5.773438 89.273438 5.773438 86.761719 L 5.773438 12.785156 C 5.773438 10.269531 7.074219 8.023438 9.25 6.765625 C 11.425781 5.507812 14.023438 5.507812 16.199219 6.765625 L 80.265625 43.753906 C 82.4375 45.011719 83.738281 47.257812 83.738281 49.769531 C 83.738281 52.285156 82.4375 54.535156 80.265625 55.789062 Z M 0.355469 12.785156 L 0.355469 86.761719 C 0.355469 91.230469 2.667969 95.234375 6.539062 97.472656 C 10.410156 99.707031 15.035156 99.707031 18.90625 97.472656 L 82.972656 60.484375 C 86.84375 58.246094 89.15625 54.242188 89.15625 49.769531 C 89.15625 45.300781 86.84375 41.296875 82.972656 39.058594 L 18.90625 2.070312 C 15.035156 -0.164062 10.414062 -0.164062 6.539062 2.070312 C 2.667969 4.308594 0.355469 8.3125 0.355469 12.785156 " fill-opacity="1" fill-rule="nonzero"/></g></g></g></g><g mask="url(#3f1ee96c23)"><g transform="matrix(1, 0, 0, 1, 917, 103)"><g clip-path="url(#7c08be87bf)"><g clip-path="url(#954c96468a)"><path fill="#0057ff" d="M 9.28125 56.585938 L 73.347656 93.574219 C 75.523438 94.832031 78.121094 94.832031 80.300781 93.574219 C 82.472656 92.316406 83.773438 90.070312 83.773438 87.558594 L 83.773438 13.582031 C 83.773438 11.066406 82.472656 8.820312 80.296875 7.5625 C 78.121094 6.304688 75.523438 6.304688 73.347656 7.5625 L 9.28125 44.550781 C 7.109375 45.808594 5.808594 48.054688 5.808594 50.566406 C 5.808594 53.082031 7.109375 55.332031 9.28125 56.585938 Z M 89.191406 13.582031 L 89.191406 87.558594 C 89.191406 92.027344 86.878906 96.03125 83.007812 98.269531 C 79.136719 100.503906 74.511719 100.503906 70.640625 98.269531 L 6.574219 61.28125 C 2.703125 59.042969 0.390625 55.039062 0.390625 50.566406 C 0.390625 46.097656 2.703125 42.09375 6.574219 39.855469 L 70.640625 2.867188 C 74.511719 0.632812 79.132812 0.632812 83.007812 2.867188 C 86.878906 5.105469 89.191406 9.109375 89.191406 13.582031 " fill-opacity="1" fill-rule="nonzero"/></g></g></g></g><g mask="url(#181800df09)"><g transform="matrix(1, 0, 0, 1, 917, 3)"><g clip-path="url(#81d058aba5)"><g clip-path="url(#402b93627d)"><path fill="#0057ff" d="M 80.265625 56.382812 L 16.199219 93.371094 C 14.023438 94.628906 11.425781 94.628906 9.246094 93.371094 C 7.074219 92.113281 5.773438 89.867188 5.773438 87.355469 L 5.773438 13.378906 C 5.773438 10.863281 7.074219 8.617188 9.25 7.359375 C 11.425781 6.101562 14.023438 6.101562 16.199219 7.359375 L 80.265625 44.347656 C 82.4375 45.605469 83.738281 47.851562 83.738281 50.367188 C 83.738281 52.878906 82.4375 55.128906 80.265625 56.382812 Z M 0.355469 13.378906 L 0.355469 87.355469 C 0.355469 91.824219 2.667969 95.828125 6.539062 98.066406 C 10.410156 100.300781 15.035156 100.300781 18.90625 98.066406 L 82.972656 61.078125 C 86.84375 58.839844 89.15625 54.835938 89.15625 50.367188 C 89.15625 50.367188 89.15625 50.367188 89.15625 50.363281 C 89.15625 45.894531 86.84375 41.890625 82.972656 39.652344 L 18.90625 2.664062 C 15.035156 0.429688 10.414062 0.429688 6.539062 2.664062 C 2.667969 4.902344 0.355469 8.90625 0.355469 13.378906 " fill-opacity="1" fill-rule="nonzero"/></g></g></g></g><g mask="url(#66fd6a805b)"><g transform="matrix(1, 0, 0, 1, 1025, 705)"><g clip-path="url(#72f66896be)"><g clip-path="url(#3d61662a0c)"><path fill="#0057ff" d="M 9.609375 55.804688 L 73.675781 92.792969 C 75.851562 94.050781 78.449219 94.050781 80.625 92.792969 C 82.800781 91.535156 84.101562 89.289062 84.101562 86.777344 L 84.101562 12.800781 C 84.101562 10.285156 82.800781 8.035156 80.625 6.78125 C 78.449219 5.523438 75.851562 5.523438 73.675781 6.78125 L 9.609375 43.769531 C 7.4375 45.027344 6.136719 47.273438 6.136719 49.785156 C 6.136719 52.300781 7.4375 54.550781 9.609375 55.804688 Z M 89.519531 12.800781 L 89.519531 86.777344 C 89.519531 91.246094 87.207031 95.25 83.335938 97.488281 C 79.464844 99.722656 74.839844 99.722656 70.96875 97.488281 L 6.902344 60.5 C 3.03125 58.261719 0.71875 54.257812 0.71875 49.785156 C 0.71875 45.3125 3.03125 41.3125 6.902344 39.074219 L 70.96875 2.085938 C 74.839844 -0.148438 79.460938 -0.148438 83.335938 2.085938 C 87.207031 4.320312 89.519531 8.328125 89.519531 12.800781 " fill-opacity="1" fill-rule="nonzero"/></g></g></g></g><g mask="url(#e5b958a0c6)"><g transform="matrix(1, 0, 0, 1, 1025, 604)"><g clip-path="url(#64dbf101ea)"><g clip-path="url(#b44aff24ee)"><path fill="#0057ff" d="M 80.589844 56.601562 L 16.527344 93.589844 C 14.351562 94.847656 11.753906 94.847656 9.574219 93.589844 C 7.402344 92.332031 6.101562 90.085938 6.101562 87.574219 L 6.101562 13.597656 C 6.101562 11.082031 7.402344 8.832031 9.578125 7.578125 C 11.753906 6.320312 14.351562 6.320312 16.527344 7.578125 L 80.589844 44.566406 C 82.765625 45.824219 84.066406 48.070312 84.066406 50.582031 C 84.066406 53.097656 82.765625 55.347656 80.589844 56.601562 Z M 0.683594 13.597656 L 0.683594 87.574219 C 0.683594 92.042969 2.996094 96.046875 6.867188 98.285156 C 10.738281 100.519531 15.363281 100.519531 19.234375 98.285156 L 83.300781 61.296875 C 87.171875 59.058594 89.484375 55.054688 89.484375 50.582031 C 89.484375 46.109375 87.171875 42.109375 83.300781 39.871094 L 19.234375 2.882812 C 15.363281 0.648438 10.738281 0.648438 6.867188 2.882812 C 2.996094 5.117188 0.683594 9.125 0.683594 13.597656 " fill-opacity="1" fill-rule="nonzero"/></g></g></g></g><g mask="url(#0f27057ca4)"><g transform="matrix(1, 0, 0, 1, 1025, 504)"><g clip-path="url(#bae210d97d)"><g clip-path="url(#770d56df70)"><path fill="#0057ff" d="M 9.609375 56.398438 L 73.675781 93.386719 C 75.851562 94.644531 78.449219 94.644531 80.625 93.386719 C 82.800781 92.128906 84.101562 89.882812 84.101562 87.371094 L 84.101562 13.394531 C 84.101562 10.878906 82.800781 8.628906 80.625 7.375 C 78.449219 6.117188 75.851562 6.117188 73.675781 7.375 L 9.609375 44.363281 C 7.4375 45.621094 6.136719 47.867188 6.136719 50.378906 C 6.136719 52.894531 7.4375 55.144531 9.609375 56.398438 Z M 89.519531 13.394531 L 89.519531 87.371094 C 89.519531 91.839844 87.207031 95.84375 83.335938 98.082031 C 79.464844 100.316406 74.839844 100.316406 70.96875 98.082031 L 6.902344 61.09375 C 3.03125 58.855469 0.71875 54.851562 0.71875 50.378906 C 0.71875 45.910156 3.03125 41.90625 6.902344 39.667969 L 70.96875 2.679688 C 74.839844 0.445312 79.460938 0.445312 83.335938 2.679688 C 87.207031 4.914062 89.519531 8.921875 89.519531 13.394531 " fill-opacity="1" fill-rule="nonzero"/></g></g></g></g><g mask="url(#7cd6fe096c)"><g transform="matrix(1, 0, 0, 1, 1025, 404)"><g clip-path="url(#2fc260a885)"><g clip-path="url(#35336af295)"><path fill="#0057ff" d="M 80.589844 56.195312 L 16.527344 93.183594 C 14.351562 94.441406 11.753906 94.441406 9.574219 93.183594 C 7.402344 91.925781 6.101562 89.679688 6.101562 87.167969 L 6.101562 13.191406 C 6.101562 10.675781 7.402344 8.425781 9.578125 7.171875 C 11.753906 5.914062 14.351562 5.914062 16.527344 7.171875 L 80.589844 44.160156 C 82.765625 45.417969 84.066406 47.664062 84.066406 50.175781 C 84.066406 52.691406 82.765625 54.941406 80.589844 56.195312 Z M 0.683594 13.191406 L 0.683594 87.167969 C 0.683594 91.636719 2.996094 95.640625 6.867188 97.878906 C 10.738281 100.113281 15.363281 100.113281 19.234375 97.878906 L 83.300781 60.890625 C 87.171875 58.652344 89.484375 54.648438 89.484375 50.175781 C 89.484375 45.707031 87.171875 41.703125 83.300781 39.464844 L 19.234375 2.476562 C 15.363281 0.242188 10.738281 0.242188 6.867188 2.476562 C 2.996094 4.710938 0.683594 8.71875 0.683594 13.191406 " fill-opacity="1" fill-rule="nonzero"/></g></g></g></g><g mask="url(#ad5ad8bff4)"><g transform="matrix(1, 0, 0, 1, 1025, 304)"><g clip-path="url(#a2787eff77)"><g clip-path="url(#9723f9b1a6)"><path fill="#0057ff" d="M 9.609375 55.992188 L 73.675781 92.980469 C 75.851562 94.238281 78.449219 94.238281 80.625 92.980469 C 82.800781 91.722656 84.101562 89.476562 84.101562 86.964844 L 84.101562 12.988281 C 84.101562 10.472656 82.800781 8.226562 80.625 6.96875 C 78.449219 5.710938 75.851562 5.710938 73.675781 6.96875 L 9.609375 43.957031 C 7.4375 45.214844 6.136719 47.460938 6.136719 49.972656 C 6.136719 52.488281 7.4375 54.738281 9.609375 55.992188 Z M 89.519531 12.988281 L 89.519531 86.964844 C 89.519531 91.433594 87.207031 95.4375 83.335938 97.675781 C 79.464844 99.910156 74.839844 99.910156 70.96875 97.675781 L 6.902344 60.6875 C 3.03125 58.449219 0.71875 54.445312 0.71875 49.972656 C 0.71875 45.503906 3.03125 41.5 6.902344 39.261719 L 70.96875 2.273438 C 74.839844 0.0390625 79.460938 0.0390625 83.335938 2.273438 C 87.207031 4.511719 89.519531 8.515625 89.519531 12.988281 " fill-opacity="1" fill-rule="nonzero"/></g></g></g></g><g mask="url(#748b12708b)"><g transform="matrix(1, 0, 0, 1, 1025, 204)"><g clip-path="url(#56f58d1503)"><g clip-path="url(#33bab35426)"><path fill="#0057ff" d="M 80.589844 55.789062 L 16.527344 92.777344 C 14.351562 94.035156 11.753906 94.035156 9.574219 92.777344 C 7.402344 91.519531 6.101562 89.273438 6.101562 86.761719 L 6.101562 12.785156 C 6.101562 10.269531 7.402344 8.023438 9.578125 6.765625 C 11.753906 5.507812 14.351562 5.507812 16.527344 6.765625 L 80.589844 43.753906 C 82.765625 45.011719 84.066406 47.257812 84.066406 49.769531 C 84.066406 52.285156 82.765625 54.535156 80.589844 55.789062 Z M 0.683594 12.785156 L 0.683594 86.761719 C 0.683594 91.230469 2.996094 95.234375 6.867188 97.472656 C 10.738281 99.707031 15.363281 99.707031 19.234375 97.472656 L 83.300781 60.484375 C 87.171875 58.246094 89.484375 54.242188 89.484375 49.769531 C 89.484375 45.300781 87.171875 41.296875 83.300781 39.058594 L 19.234375 2.070312 C 15.363281 -0.164062 10.738281 -0.164062 6.867188 2.070312 C 2.996094 4.308594 0.683594 8.3125 0.683594 12.785156 " fill-opacity="1" fill-rule="nonzero"/></g></g></g></g><g mask="url(#7a16060ad0)"><g transform="matrix(1, 0, 0, 1, 1025, 103)"><g clip-path="url(#ab4a742dde)"><g clip-path="url(#b021e2b1fe)"><path fill="#0057ff" d="M 9.609375 56.585938 L 73.675781 93.574219 C 75.851562 94.832031 78.449219 94.832031 80.625 93.574219 C 82.800781 92.316406 84.101562 90.070312 84.101562 87.558594 L 84.101562 13.582031 C 84.101562 11.066406 82.800781 8.820312 80.625 7.5625 C 78.449219 6.304688 75.851562 6.304688 73.675781 7.5625 L 9.609375 44.550781 C 7.4375 45.808594 6.136719 48.054688 6.136719 50.566406 C 6.136719 53.082031 7.4375 55.332031 9.609375 56.585938 Z M 89.519531 13.582031 L 89.519531 87.558594 C 89.519531 92.027344 87.207031 96.03125 83.335938 98.269531 C 79.464844 100.503906 74.839844 100.503906 70.96875 98.269531 L 6.902344 61.28125 C 3.03125 59.042969 0.71875 55.039062 0.71875 50.566406 C 0.71875 46.097656 3.03125 42.09375 6.902344 39.855469 L 70.96875 2.867188 C 74.839844 0.632812 79.460938 0.632812 83.335938 2.867188 C 87.207031 5.105469 89.519531 9.109375 89.519531 13.582031 " fill-opacity="1" fill-rule="nonzero"/></g></g></g></g><g mask="url(#4af48cff63)"><g transform="matrix(1, 0, 0, 1, 1025, 3)"><g clip-path="url(#1989776cd8)"><g clip-path="url(#ccb4ba46ac)"><path fill="#0057ff" d="M 80.589844 56.382812 L 16.527344 93.371094 C 14.351562 94.628906 11.753906 94.628906 9.574219 93.371094 C 7.402344 92.113281 6.101562 89.867188 6.101562 87.355469 L 6.101562 13.378906 C 6.101562 10.863281 7.402344 8.617188 9.578125 7.359375 C 11.753906 6.101562 14.351562 6.101562 16.527344 7.359375 L 80.589844 44.347656 C 82.765625 45.605469 84.066406 47.851562 84.066406 50.367188 C 84.066406 52.878906 82.765625 55.128906 80.589844 56.382812 Z M 0.683594 13.378906 L 0.683594 87.355469 C 0.683594 91.824219 2.996094 95.828125 6.867188 98.066406 C 10.738281 100.300781 15.363281 100.300781 19.234375 98.066406 L 83.300781 61.078125 C 87.171875 58.839844 89.484375 54.835938 89.484375 50.367188 C 89.484375 50.367188 89.484375 50.367188 89.484375 50.363281 C 89.484375 45.894531 87.171875 41.890625 83.300781 39.652344 L 19.234375 2.664062 C 15.363281 0.429688 10.738281 0.429688 6.867188 2.664062 C 2.996094 4.902344 0.683594 8.90625 0.683594 13.378906 " fill-opacity="1" fill-rule="nonzero"/></g></g></g></g><g mask="url(#43537682ec)"><g transform="matrix(1, 0, 0, 1, 1133, 705)"><g clip-path="url(#111f3b59b2)"><g clip-path="url(#b82948866b)"><path fill="#0057ff" d="M 9.753906 55.804688 L 73.820312 92.792969 C 75.996094 94.050781 78.59375 94.050781 80.769531 92.792969 C 82.945312 91.535156 84.246094 89.289062 84.246094 86.777344 L 84.246094 12.800781 C 84.246094 10.285156 82.945312 8.035156 80.769531 6.78125 C 78.59375 5.523438 75.996094 5.523438 73.820312 6.78125 L 9.753906 43.769531 C 7.578125 45.027344 6.28125 47.273438 6.28125 49.785156 C 6.28125 52.300781 7.578125 54.550781 9.753906 55.804688 Z M 89.664062 12.800781 L 89.664062 86.777344 C 89.664062 91.246094 87.351562 95.25 83.480469 97.488281 C 79.605469 99.722656 74.980469 99.722656 71.109375 97.488281 L 7.042969 60.5 C 3.171875 58.261719 0.859375 54.257812 0.859375 49.785156 C 0.859375 45.3125 3.171875 41.3125 7.042969 39.074219 L 71.109375 2.085938 C 74.980469 -0.148438 79.605469 -0.148438 83.480469 2.085938 C 87.351562 4.320312 89.664062 8.328125 89.664062 12.800781 " fill-opacity="1" fill-rule="nonzero"/></g></g></g></g><g mask="url(#3b2f693315)"><g transform="matrix(1, 0, 0, 1, 1133, 604)"><g clip-path="url(#4b4db9b0db)"><g clip-path="url(#81ea4eac3c)"><path fill="#0057ff" d="M 80.734375 56.601562 L 16.667969 93.589844 C 14.492188 94.847656 11.894531 94.847656 9.71875 93.589844 C 7.542969 92.332031 6.246094 90.085938 6.246094 87.574219 L 6.246094 13.597656 C 6.246094 11.082031 7.542969 8.832031 9.71875 7.578125 C 11.894531 6.320312 14.492188 6.320312 16.667969 7.578125 L 80.734375 44.566406 C 82.910156 45.824219 84.210938 48.070312 84.210938 50.582031 C 84.210938 53.097656 82.910156 55.347656 80.734375 56.601562 Z M 0.824219 13.597656 L 0.824219 87.574219 C 0.824219 92.042969 3.136719 96.046875 7.007812 98.285156 C 10.882812 100.519531 15.507812 100.519531 19.378906 98.285156 L 83.445312 61.296875 C 87.316406 59.058594 89.628906 55.054688 89.628906 50.582031 C 89.628906 46.109375 87.316406 42.109375 83.445312 39.871094 L 19.378906 2.882812 C 15.507812 0.648438 10.882812 0.648438 7.011719 2.882812 C 3.136719 5.117188 0.824219 9.125 0.824219 13.597656 " fill-opacity="1" fill-rule="nonzero"/></g></g></g></g><g mask="url(#b280260815)"><g transform="matrix(1, 0, 0, 1, 1133, 504)"><g clip-path="url(#3767d4d146)"><g clip-path="url(#6b9fbf9dc6)"><path fill="#0057ff" d="M 9.753906 56.398438 L 73.820312 93.386719 C 75.996094 94.644531 78.59375 94.644531 80.769531 93.386719 C 82.945312 92.128906 84.246094 89.882812 84.246094 87.371094 L 84.246094 13.394531 C 84.246094 10.878906 82.945312 8.628906 80.769531 7.375 C 78.59375 6.117188 75.996094 6.117188 73.820312 7.375 L 9.753906 44.363281 C 7.578125 45.621094 6.28125 47.867188 6.28125 50.378906 C 6.28125 52.894531 7.578125 55.144531 9.753906 56.398438 Z M 89.664062 13.394531 L 89.664062 87.371094 C 89.664062 91.839844 87.351562 95.84375 83.480469 98.082031 C 79.605469 100.316406 74.980469 100.316406 71.109375 98.082031 L 7.042969 61.09375 C 3.171875 58.855469 0.859375 54.851562 0.859375 50.378906 C 0.859375 45.910156 3.171875 41.90625 7.042969 39.667969 L 71.109375 2.679688 C 74.980469 0.445312 79.605469 0.445312 83.480469 2.679688 C 87.351562 4.914062 89.664062 8.921875 89.664062 13.394531 " fill-opacity="1" fill-rule="nonzero"/></g></g></g></g><g mask="url(#93f56d21ca)"><g transform="matrix(1, 0, 0, 1, 1133, 404)"><g clip-path="url(#ae6b6080a5)"><g clip-path="url(#a7006a10c0)"><path fill="#0057ff" d="M 80.734375 56.195312 L 16.667969 93.183594 C 14.492188 94.441406 11.894531 94.441406 9.71875 93.183594 C 7.542969 91.925781 6.246094 89.679688 6.246094 87.167969 L 6.246094 13.191406 C 6.246094 10.675781 7.542969 8.425781 9.71875 7.171875 C 11.894531 5.914062 14.492188 5.914062 16.667969 7.171875 L 80.734375 44.160156 C 82.910156 45.417969 84.210938 47.664062 84.210938 50.175781 C 84.210938 52.691406 82.910156 54.941406 80.734375 56.195312 Z M 0.824219 13.191406 L 0.824219 87.167969 C 0.824219 91.636719 3.136719 95.640625 7.007812 97.878906 C 10.882812 100.113281 15.507812 100.113281 19.378906 97.878906 L 83.445312 60.890625 C 87.316406 58.652344 89.628906 54.648438 89.628906 50.175781 C 89.628906 45.707031 87.316406 41.703125 83.445312 39.464844 L 19.378906 2.476562 C 15.507812 0.242188 10.882812 0.242188 7.011719 2.476562 C 3.136719 4.710938 0.824219 8.71875 0.824219 13.191406 " fill-opacity="1" fill-rule="nonzero"/></g></g></g></g><g mask="url(#add33bad08)"><g transform="matrix(1, 0, 0, 1, 1133, 304)"><g clip-path="url(#53e1c5e85c)"><g clip-path="url(#f2777e1ffd)"><path fill="#0057ff" d="M 9.753906 55.992188 L 73.820312 92.980469 C 75.996094 94.238281 78.59375 94.238281 80.769531 92.980469 C 82.945312 91.722656 84.246094 89.476562 84.246094 86.964844 L 84.246094 12.988281 C 84.246094 10.472656 82.945312 8.226562 80.769531 6.96875 C 78.59375 5.710938 75.996094 5.710938 73.820312 6.96875 L 9.753906 43.957031 C 7.578125 45.214844 6.28125 47.460938 6.28125 49.972656 C 6.28125 52.488281 7.578125 54.738281 9.753906 55.992188 Z M 89.664062 12.988281 L 89.664062 86.964844 C 89.664062 91.433594 87.351562 95.4375 83.480469 97.675781 C 79.605469 99.910156 74.980469 99.910156 71.109375 97.675781 L 7.042969 60.6875 C 3.171875 58.449219 0.859375 54.445312 0.859375 49.972656 C 0.859375 45.503906 3.171875 41.5 7.042969 39.261719 L 71.109375 2.273438 C 74.980469 0.0390625 79.605469 0.0390625 83.480469 2.273438 C 87.351562 4.511719 89.664062 8.515625 89.664062 12.988281 " fill-opacity="1" fill-rule="nonzero"/></g></g></g></g><g mask="url(#1a185ce374)"><g transform="matrix(1, 0, 0, 1, 1133, 204)"><g clip-path="url(#76da682e01)"><g clip-path="url(#d63ca3ad2b)"><path fill="#0057ff" d="M 80.734375 55.789062 L 16.667969 92.777344 C 14.492188 94.035156 11.894531 94.035156 9.71875 92.777344 C 7.542969 91.519531 6.246094 89.273438 6.246094 86.761719 L 6.246094 12.785156 C 6.246094 10.269531 7.542969 8.023438 9.71875 6.765625 C 11.894531 5.507812 14.492188 5.507812 16.667969 6.765625 L 80.734375 43.753906 C 82.910156 45.011719 84.210938 47.257812 84.210938 49.769531 C 84.210938 52.285156 82.910156 54.535156 80.734375 55.789062 Z M 0.824219 12.785156 L 0.824219 86.761719 C 0.824219 91.230469 3.136719 95.234375 7.007812 97.472656 C 10.882812 99.707031 15.507812 99.707031 19.378906 97.472656 L 83.445312 60.484375 C 87.316406 58.246094 89.628906 54.242188 89.628906 49.769531 C 89.628906 45.300781 87.316406 41.296875 83.445312 39.058594 L 19.378906 2.070312 C 15.507812 -0.164062 10.882812 -0.164062 7.011719 2.070312 C 3.136719 4.308594 0.824219 8.3125 0.824219 12.785156 " fill-opacity="1" fill-rule="nonzero"/></g></g></g></g><g mask="url(#12373a1c55)"><g transform="matrix(1, 0, 0, 1, 1133, 103)"><g clip-path="url(#b6721d39a2)"><g clip-path="url(#bd44eca6ff)"><path fill="#0057ff" d="M 9.753906 56.585938 L 73.820312 93.574219 C 75.996094 94.832031 78.59375 94.832031 80.769531 93.574219 C 82.945312 92.316406 84.246094 90.070312 84.246094 87.558594 L 84.246094 13.582031 C 84.246094 11.066406 82.945312 8.820312 80.769531 7.5625 C 78.59375 6.304688 75.996094 6.304688 73.820312 7.5625 L 9.753906 44.550781 C 7.578125 45.808594 6.28125 48.054688 6.28125 50.566406 C 6.28125 53.082031 7.578125 55.332031 9.753906 56.585938 Z M 89.664062 13.582031 L 89.664062 87.558594 C 89.664062 92.027344 87.351562 96.03125 83.480469 98.269531 C 79.605469 100.503906 74.980469 100.503906 71.109375 98.269531 L 7.042969 61.28125 C 3.171875 59.042969 0.859375 55.039062 0.859375 50.566406 C 0.859375 46.097656 3.171875 42.09375 7.042969 39.855469 L 71.109375 2.867188 C 74.980469 0.632812 79.605469 0.632812 83.480469 2.867188 C 87.351562 5.105469 89.664062 9.109375 89.664062 13.582031 " fill-opacity="1" fill-rule="nonzero"/></g></g></g></g><g mask="url(#1b5e73ad49)"><g transform="matrix(1, 0, 0, 1, 1133, 3)"><g clip-path="url(#ce128a32a3)"><g clip-path="url(#3726e5e93f)"><path fill="#0057ff" d="M 80.734375 56.382812 L 16.667969 93.371094 C 14.492188 94.628906 11.894531 94.628906 9.71875 93.371094 C 7.542969 92.113281 6.246094 89.867188 6.246094 87.355469 L 6.246094 13.378906 C 6.246094 10.863281 7.542969 8.617188 9.71875 7.359375 C 11.894531 6.101562 14.492188 6.101562 16.667969 7.359375 L 80.734375 44.347656 C 82.910156 45.605469 84.210938 47.851562 84.210938 50.367188 C 84.210938 52.878906 82.910156 55.128906 80.734375 56.382812 Z M 0.824219 13.378906 L 0.824219 87.355469 C 0.824219 91.824219 3.136719 95.828125 7.007812 98.066406 C 10.882812 100.300781 15.507812 100.300781 19.378906 98.066406 L 83.445312 61.078125 C 87.316406 58.839844 89.628906 54.835938 89.628906 50.367188 C 89.628906 50.367188 89.628906 50.367188 89.628906 50.363281 C 89.628906 45.894531 87.316406 41.890625 83.445312 39.652344 L 19.378906 2.664062 C 15.507812 0.429688 10.882812 0.429688 7.011719 2.664062 C 3.136719 4.902344 0.824219 8.90625 0.824219 13.378906 " fill-opacity="1" fill-rule="nonzero"/></g></g></g></g><g mask="url(#e6d1039bf6)"><g transform="matrix(1, 0, 0, 1, 1242, 705)"><g clip-path="url(#443a22ee2d)"><g clip-path="url(#9a7854dde3)"><path fill="#0057ff" d="M 9.957031 55.804688 L 74.023438 92.792969 C 76.199219 94.050781 78.796875 94.050781 80.972656 92.792969 C 83.148438 91.535156 84.445312 89.289062 84.445312 86.777344 L 84.445312 12.800781 C 84.445312 10.285156 83.148438 8.035156 80.972656 6.78125 C 78.796875 5.523438 76.199219 5.523438 74.023438 6.78125 L 9.957031 43.769531 C 7.78125 45.027344 6.484375 47.273438 6.484375 49.785156 C 6.484375 52.300781 7.78125 54.550781 9.957031 55.804688 Z M 89.867188 12.800781 L 89.867188 86.777344 C 89.867188 91.246094 87.554688 95.25 83.683594 97.488281 C 79.808594 99.722656 75.183594 99.722656 71.3125 97.488281 L 7.246094 60.5 C 3.375 58.261719 1.0625 54.257812 1.0625 49.785156 C 1.0625 45.3125 3.375 41.3125 7.246094 39.074219 L 71.3125 2.085938 C 75.183594 -0.148438 79.808594 -0.148438 83.679688 2.085938 C 87.554688 4.320312 89.867188 8.328125 89.867188 12.800781 " fill-opacity="1" fill-rule="nonzero"/></g></g></g></g><g mask="url(#f2ddf0ff14)"><g transform="matrix(1, 0, 0, 1, 1242, 604)"><g clip-path="url(#358a321f41)"><g clip-path="url(#b001808605)"><path fill="#0057ff" d="M 80.9375 56.601562 L 16.871094 93.589844 C 14.695312 94.847656 12.097656 94.847656 9.921875 93.589844 C 7.746094 92.332031 6.449219 90.085938 6.449219 87.574219 L 6.449219 13.597656 C 6.449219 11.082031 7.746094 8.832031 9.921875 7.578125 C 12.097656 6.320312 14.695312 6.320312 16.871094 7.578125 L 80.9375 44.566406 C 83.113281 45.824219 84.410156 48.070312 84.410156 50.582031 C 84.410156 53.097656 83.113281 55.347656 80.9375 56.601562 Z M 1.027344 13.597656 L 1.027344 87.574219 C 1.027344 92.042969 3.339844 96.046875 7.210938 98.285156 C 11.085938 100.519531 15.710938 100.519531 19.582031 98.285156 L 83.648438 61.296875 C 87.519531 59.058594 89.832031 55.054688 89.832031 50.582031 C 89.832031 46.109375 87.519531 42.109375 83.648438 39.871094 L 19.582031 2.882812 C 15.710938 0.648438 11.085938 0.648438 7.214844 2.882812 C 3.339844 5.117188 1.027344 9.125 1.027344 13.597656 " fill-opacity="1" fill-rule="nonzero"/></g></g></g></g><g mask="url(#f7445b4ff5)"><g transform="matrix(1, 0, 0, 1, 1242, 504)"><g clip-path="url(#764b3842ed)"><g clip-path="url(#ee729696ac)"><path fill="#0057ff" d="M 9.957031 56.398438 L 74.023438 93.386719 C 76.199219 94.644531 78.796875 94.644531 80.972656 93.386719 C 83.148438 92.128906 84.445312 89.882812 84.445312 87.371094 L 84.445312 13.394531 C 84.445312 10.878906 83.148438 8.628906 80.972656 7.375 C 78.796875 6.117188 76.199219 6.117188 74.023438 7.375 L 9.957031 44.363281 C 7.78125 45.621094 6.484375 47.867188 6.484375 50.378906 C 6.484375 52.894531 7.78125 55.144531 9.957031 56.398438 Z M 89.867188 13.394531 L 89.867188 87.371094 C 89.867188 91.839844 87.554688 95.84375 83.683594 98.082031 C 79.808594 100.316406 75.183594 100.316406 71.3125 98.082031 L 7.246094 61.09375 C 3.375 58.855469 1.0625 54.851562 1.0625 50.378906 C 1.0625 45.910156 3.375 41.90625 7.246094 39.667969 L 71.3125 2.679688 C 75.183594 0.445312 79.808594 0.445312 83.679688 2.679688 C 87.554688 4.914062 89.867188 8.921875 89.867188 13.394531 " fill-opacity="1" fill-rule="nonzero"/></g></g></g></g><g mask="url(#d9d4045011)"><g transform="matrix(1, 0, 0, 1, 1242, 404)"><g clip-path="url(#039e3b715b)"><g clip-path="url(#20eb571a6f)"><path fill="#0057ff" d="M 80.9375 56.195312 L 16.871094 93.183594 C 14.695312 94.441406 12.097656 94.441406 9.921875 93.183594 C 7.746094 91.925781 6.449219 89.679688 6.449219 87.167969 L 6.449219 13.191406 C 6.449219 10.675781 7.746094 8.425781 9.921875 7.171875 C 12.097656 5.914062 14.695312 5.914062 16.871094 7.171875 L 80.9375 44.160156 C 83.113281 45.417969 84.410156 47.664062 84.410156 50.175781 C 84.410156 52.691406 83.113281 54.941406 80.9375 56.195312 Z M 1.027344 13.191406 L 1.027344 87.167969 C 1.027344 91.636719 3.339844 95.640625 7.210938 97.878906 C 11.085938 100.113281 15.710938 100.113281 19.582031 97.878906 L 83.648438 60.890625 C 87.519531 58.652344 89.832031 54.648438 89.832031 50.175781 C 89.832031 45.707031 87.519531 41.703125 83.648438 39.464844 L 19.582031 2.476562 C 15.710938 0.242188 11.085938 0.242188 7.214844 2.476562 C 3.339844 4.710938 1.027344 8.71875 1.027344 13.191406 " fill-opacity="1" fill-rule="nonzero"/></g></g></g></g><g mask="url(#cdd23bd3d7)"><g transform="matrix(1, 0, 0, 1, 1242, 304)"><g clip-path="url(#d3742440ec)"><g clip-path="url(#de929f1620)"><path fill="#0057ff" d="M 9.957031 55.992188 L 74.023438 92.980469 C 76.199219 94.238281 78.796875 94.238281 80.972656 92.980469 C 83.148438 91.722656 84.445312 89.476562 84.445312 86.964844 L 84.445312 12.988281 C 84.445312 10.472656 83.148438 8.226562 80.972656 6.96875 C 78.796875 5.710938 76.199219 5.710938 74.023438 6.96875 L 9.957031 43.957031 C 7.78125 45.214844 6.484375 47.460938 6.484375 49.972656 C 6.484375 52.488281 7.78125 54.738281 9.957031 55.992188 Z M 89.867188 12.988281 L 89.867188 86.964844 C 89.867188 91.433594 87.554688 95.4375 83.683594 97.675781 C 79.808594 99.910156 75.183594 99.910156 71.3125 97.675781 L 7.246094 60.6875 C 3.375 58.449219 1.0625 54.445312 1.0625 49.972656 C 1.0625 45.503906 3.375 41.5 7.246094 39.261719 L 71.3125 2.273438 C 75.183594 0.0390625 79.808594 0.0390625 83.679688 2.273438 C 87.554688 4.511719 89.867188 8.515625 89.867188 12.988281 " fill-opacity="1" fill-rule="nonzero"/></g></g></g></g><g mask="url(#544f2b4c4d)"><g transform="matrix(1, 0, 0, 1, 1242, 204)"><g clip-path="url(#0663c97935)"><g clip-path="url(#7a06c03c9e)"><path fill="#0057ff" d="M 80.9375 55.789062 L 16.871094 92.777344 C 14.695312 94.035156 12.097656 94.035156 9.921875 92.777344 C 7.746094 91.519531 6.449219 89.273438 6.449219 86.761719 L 6.449219 12.785156 C 6.449219 10.269531 7.746094 8.023438 9.921875 6.765625 C 12.097656 5.507812 14.695312 5.507812 16.871094 6.765625 L 80.9375 43.753906 C 83.113281 45.011719 84.410156 47.257812 84.410156 49.769531 C 84.410156 52.285156 83.113281 54.535156 80.9375 55.789062 Z M 1.027344 12.785156 L 1.027344 86.761719 C 1.027344 91.230469 3.339844 95.234375 7.210938 97.472656 C 11.085938 99.707031 15.710938 99.707031 19.582031 97.472656 L 83.648438 60.484375 C 87.519531 58.246094 89.832031 54.242188 89.832031 49.769531 C 89.832031 45.300781 87.519531 41.296875 83.648438 39.058594 L 19.582031 2.070312 C 15.710938 -0.164062 11.085938 -0.164062 7.214844 2.070312 C 3.339844 4.308594 1.027344 8.3125 1.027344 12.785156 " fill-opacity="1" fill-rule="nonzero"/></g></g></g></g><g mask="url(#88c4a3d25e)"><g transform="matrix(1, 0, 0, 1, 1242, 103)"><g clip-path="url(#c98b75bddf)"><g clip-path="url(#67d8590d79)"><path fill="#0057ff" d="M 9.957031 56.585938 L 74.023438 93.574219 C 76.199219 94.832031 78.796875 94.832031 80.972656 93.574219 C 83.148438 92.316406 84.445312 90.070312 84.445312 87.558594 L 84.445312 13.582031 C 84.445312 11.066406 83.148438 8.820312 80.972656 7.5625 C 78.796875 6.304688 76.199219 6.304688 74.023438 7.5625 L 9.957031 44.550781 C 7.78125 45.808594 6.484375 48.054688 6.484375 50.566406 C 6.484375 53.082031 7.78125 55.332031 9.957031 56.585938 Z M 89.867188 13.582031 L 89.867188 87.558594 C 89.867188 92.027344 87.554688 96.03125 83.683594 98.269531 C 79.808594 100.503906 75.183594 100.503906 71.3125 98.269531 L 7.246094 61.28125 C 3.375 59.042969 1.0625 55.039062 1.0625 50.566406 C 1.0625 46.097656 3.375 42.09375 7.246094 39.855469 L 71.3125 2.867188 C 75.183594 0.632812 79.808594 0.632812 83.679688 2.867188 C 87.554688 5.105469 89.867188 9.109375 89.867188 13.582031 " fill-opacity="1" fill-rule="nonzero"/></g></g></g></g><g mask="url(#c1a70c460e)"><g transform="matrix(1, 0, 0, 1, 1242, 3)"><g clip-path="url(#557a61d1b3)"><g clip-path="url(#69e9fa7fc4)"><path fill="#0057ff" d="M 80.9375 56.382812 L 16.871094 93.371094 C 14.695312 94.628906 12.097656 94.628906 9.921875 93.371094 C 7.746094 92.113281 6.449219 89.867188 6.449219 87.355469 L 6.449219 13.378906 C 6.449219 10.863281 7.746094 8.617188 9.921875 7.359375 C 12.097656 6.101562 14.695312 6.101562 16.871094 7.359375 L 80.9375 44.347656 C 83.113281 45.605469 84.410156 47.851562 84.410156 50.367188 C 84.410156 52.878906 83.113281 55.128906 80.9375 56.382812 Z M 1.027344 13.378906 L 1.027344 87.355469 C 1.027344 91.824219 3.339844 95.828125 7.210938 98.066406 C 11.085938 100.300781 15.710938 100.300781 19.582031 98.066406 L 83.648438 61.078125 C 87.519531 58.839844 89.832031 54.835938 89.832031 50.367188 C 89.832031 50.367188 89.832031 50.367188 89.832031 50.363281 C 89.832031 45.894531 87.519531 41.890625 83.648438 39.652344 L 19.582031 2.664062 C 15.710938 0.429688 11.085938 0.429688 7.214844 2.664062 C 3.339844 4.902344 1.027344 8.90625 1.027344 13.378906 " fill-opacity="1" fill-rule="nonzero"/></g></g></g></g><g mask="url(#2097055892)"><g transform="matrix(1, 0, 0, 1, 1350, 705)"><g clip-path="url(#a68eaaae41)"><g clip-path="url(#77fe456df6)"><path fill="#0057ff" d="M 10.101562 55.804688 L 74.167969 92.792969 C 76.339844 94.050781 78.941406 94.050781 81.117188 92.792969 C 83.292969 91.535156 84.589844 89.289062 84.589844 86.777344 L 84.589844 12.800781 C 84.589844 10.285156 83.292969 8.035156 81.113281 6.78125 C 78.941406 5.523438 76.339844 5.523438 74.167969 6.78125 L 10.101562 43.769531 C 7.925781 45.027344 6.625 47.273438 6.625 49.785156 C 6.625 52.300781 7.925781 54.550781 10.101562 55.804688 Z M 90.011719 12.800781 L 90.011719 86.777344 C 90.011719 91.246094 87.699219 95.25 83.828125 97.488281 C 79.953125 99.722656 75.328125 99.722656 71.457031 97.488281 L 7.390625 60.5 C 3.519531 58.261719 1.207031 54.257812 1.207031 49.785156 C 1.207031 45.3125 3.519531 41.3125 7.390625 39.074219 L 71.457031 2.085938 C 75.328125 -0.148438 79.953125 -0.148438 83.824219 2.085938 C 87.699219 4.320312 90.011719 8.328125 90.011719 12.800781 " fill-opacity="1" fill-rule="nonzero"/></g></g></g></g><g mask="url(#a838f68280)"><g transform="matrix(1, 0, 0, 1, 1350, 604)"><g clip-path="url(#527c8059cb)"><g clip-path="url(#b955cf2db9)"><path fill="#0057ff" d="M 81.082031 56.601562 L 17.015625 93.589844 C 14.839844 94.847656 12.242188 94.847656 10.066406 93.589844 C 7.890625 92.332031 6.589844 90.085938 6.589844 87.574219 L 6.589844 13.597656 C 6.589844 11.082031 7.890625 8.832031 10.066406 7.578125 C 12.242188 6.320312 14.839844 6.320312 17.015625 7.578125 L 81.082031 44.566406 C 83.257812 45.824219 84.554688 48.070312 84.554688 50.582031 C 84.554688 53.097656 83.257812 55.347656 81.082031 56.601562 Z M 1.171875 13.597656 L 1.171875 87.574219 C 1.171875 92.042969 3.484375 96.046875 7.355469 98.285156 C 11.226562 100.519531 15.851562 100.519531 19.726562 98.285156 L 83.792969 61.296875 C 87.664062 59.058594 89.976562 55.054688 89.976562 50.582031 C 89.976562 46.109375 87.664062 42.109375 83.792969 39.871094 L 19.726562 2.882812 C 15.851562 0.648438 11.230469 0.648438 7.355469 2.882812 C 3.484375 5.117188 1.171875 9.125 1.171875 13.597656 " fill-opacity="1" fill-rule="nonzero"/></g></g></g></g><g mask="url(#597ca4d846)"><g transform="matrix(1, 0, 0, 1, 1350, 504)"><g clip-path="url(#603139f3d7)"><g clip-path="url(#0ccf103f25)"><path fill="#0057ff" d="M 10.101562 56.398438 L 74.167969 93.386719 C 76.339844 94.644531 78.941406 94.644531 81.117188 93.386719 C 83.292969 92.128906 84.589844 89.882812 84.589844 87.371094 L 84.589844 13.394531 C 84.589844 10.878906 83.292969 8.628906 81.113281 7.375 C 78.941406 6.117188 76.339844 6.117188 74.167969 7.375 L 10.101562 44.363281 C 7.925781 45.621094 6.625 47.867188 6.625 50.378906 C 6.625 52.894531 7.925781 55.144531 10.101562 56.398438 Z M 90.011719 13.394531 L 90.011719 87.371094 C 90.011719 91.839844 87.699219 95.84375 83.828125 98.082031 C 79.953125 100.316406 75.328125 100.316406 71.457031 98.082031 L 7.390625 61.09375 C 3.519531 58.855469 1.207031 54.851562 1.207031 50.378906 C 1.207031 45.910156 3.519531 41.90625 7.390625 39.667969 L 71.457031 2.679688 C 75.328125 0.445312 79.953125 0.445312 83.824219 2.679688 C 87.699219 4.914062 90.011719 8.921875 90.011719 13.394531 " fill-opacity="1" fill-rule="nonzero"/></g></g></g></g><g mask="url(#ef8867fcad)"><g transform="matrix(1, 0, 0, 1, 1350, 404)"><g clip-path="url(#b15ca87dd5)"><g clip-path="url(#2fcb6dedd0)"><path fill="#0057ff" d="M 81.082031 56.195312 L 17.015625 93.183594 C 14.839844 94.441406 12.242188 94.441406 10.066406 93.183594 C 7.890625 91.925781 6.589844 89.679688 6.589844 87.167969 L 6.589844 13.191406 C 6.589844 10.675781 7.890625 8.425781 10.066406 7.171875 C 12.242188 5.914062 14.839844 5.914062 17.015625 7.171875 L 81.082031 44.160156 C 83.257812 45.417969 84.554688 47.664062 84.554688 50.175781 C 84.554688 52.691406 83.257812 54.941406 81.082031 56.195312 Z M 1.171875 13.191406 L 1.171875 87.167969 C 1.171875 91.636719 3.484375 95.640625 7.355469 97.878906 C 11.226562 100.113281 15.851562 100.113281 19.726562 97.878906 L 83.792969 60.890625 C 87.664062 58.652344 89.976562 54.648438 89.976562 50.175781 C 89.976562 45.707031 87.664062 41.703125 83.792969 39.464844 L 19.726562 2.476562 C 15.851562 0.242188 11.230469 0.242188 7.355469 2.476562 C 3.484375 4.710938 1.171875 8.71875 1.171875 13.191406 " fill-opacity="1" fill-rule="nonzero"/></g></g></g></g><g mask="url(#145011b77d)"><g transform="matrix(1, 0, 0, 1, 1350, 304)"><g clip-path="url(#4a0a99f614)"><g clip-path="url(#f58e7d5a6f)"><path fill="#0057ff" d="M 10.101562 55.992188 L 74.167969 92.980469 C 76.339844 94.238281 78.941406 94.238281 81.117188 92.980469 C 83.292969 91.722656 84.589844 89.476562 84.589844 86.964844 L 84.589844 12.988281 C 84.589844 10.472656 83.292969 8.226562 81.113281 6.96875 C 78.941406 5.710938 76.339844 5.710938 74.167969 6.96875 L 10.101562 43.957031 C 7.925781 45.214844 6.625 47.460938 6.625 49.972656 C 6.625 52.488281 7.925781 54.738281 10.101562 55.992188 Z M 90.011719 12.988281 L 90.011719 86.964844 C 90.011719 91.433594 87.699219 95.4375 83.828125 97.675781 C 79.953125 99.910156 75.328125 99.910156 71.457031 97.675781 L 7.390625 60.6875 C 3.519531 58.449219 1.207031 54.445312 1.207031 49.972656 C 1.207031 45.503906 3.519531 41.5 7.390625 39.261719 L 71.457031 2.273438 C 75.328125 0.0390625 79.953125 0.0390625 83.824219 2.273438 C 87.699219 4.511719 90.011719 8.515625 90.011719 12.988281 " fill-opacity="1" fill-rule="nonzero"/></g></g></g></g><g mask="url(#c38dbf7423)"><g transform="matrix(1, 0, 0, 1, 1350, 204)"><g clip-path="url(#07574d7234)"><g clip-path="url(#45459acd03)"><path fill="#0057ff" d="M 81.082031 55.789062 L 17.015625 92.777344 C 14.839844 94.035156 12.242188 94.035156 10.066406 92.777344 C 7.890625 91.519531 6.589844 89.273438 6.589844 86.761719 L 6.589844 12.785156 C 6.589844 10.269531 7.890625 8.023438 10.066406 6.765625 C 12.242188 5.507812 14.839844 5.507812 17.015625 6.765625 L 81.082031 43.753906 C 83.257812 45.011719 84.554688 47.257812 84.554688 49.769531 C 84.554688 52.285156 83.257812 54.535156 81.082031 55.789062 Z M 1.171875 12.785156 L 1.171875 86.761719 C 1.171875 91.230469 3.484375 95.234375 7.355469 97.472656 C 11.226562 99.707031 15.851562 99.707031 19.726562 97.472656 L 83.792969 60.484375 C 87.664062 58.246094 89.976562 54.242188 89.976562 49.769531 C 89.976562 45.300781 87.664062 41.296875 83.792969 39.058594 L 19.726562 2.070312 C 15.851562 -0.164062 11.230469 -0.164062 7.355469 2.070312 C 3.484375 4.308594 1.171875 8.3125 1.171875 12.785156 " fill-opacity="1" fill-rule="nonzero"/></g></g></g></g><g mask="url(#b5aa7138e4)"><g transform="matrix(1, 0, 0, 1, 1350, 103)"><g clip-path="url(#1730d7b702)"><g clip-path="url(#838e8f5d9d)"><path fill="#0057ff" d="M 10.101562 56.585938 L 74.167969 93.574219 C 76.339844 94.832031 78.941406 94.832031 81.117188 93.574219 C 83.292969 92.316406 84.589844 90.070312 84.589844 87.558594 L 84.589844 13.582031 C 84.589844 11.066406 83.292969 8.820312 81.113281 7.5625 C 78.941406 6.304688 76.339844 6.304688 74.167969 7.5625 L 10.101562 44.550781 C 7.925781 45.808594 6.625 48.054688 6.625 50.566406 C 6.625 53.082031 7.925781 55.332031 10.101562 56.585938 Z M 90.011719 13.582031 L 90.011719 87.558594 C 90.011719 92.027344 87.699219 96.03125 83.828125 98.269531 C 79.953125 100.503906 75.328125 100.503906 71.457031 98.269531 L 7.390625 61.28125 C 3.519531 59.042969 1.207031 55.039062 1.207031 50.566406 C 1.207031 46.097656 3.519531 42.09375 7.390625 39.855469 L 71.457031 2.867188 C 75.328125 0.632812 79.953125 0.632812 83.824219 2.867188 C 87.699219 5.105469 90.011719 9.109375 90.011719 13.582031 " fill-opacity="1" fill-rule="nonzero"/></g></g></g></g><g mask="url(#abd7f7f7f7)"><g transform="matrix(1, 0, 0, 1, 1350, 3)"><g clip-path="url(#5d8570d1a7)"><g clip-path="url(#018bf593d6)"><path fill="#0057ff" d="M 81.082031 56.382812 L 17.015625 93.371094 C 14.839844 94.628906 12.242188 94.628906 10.066406 93.371094 C 7.890625 92.113281 6.589844 89.867188 6.589844 87.355469 L 6.589844 13.378906 C 6.589844 10.863281 7.890625 8.617188 10.066406 7.359375 C 12.242188 6.101562 14.839844 6.101562 17.015625 7.359375 L 81.082031 44.347656 C 83.257812 45.605469 84.554688 47.851562 84.554688 50.367188 C 84.554688 52.878906 83.257812 55.128906 81.082031 56.382812 Z M 1.171875 13.378906 L 1.171875 87.355469 C 1.171875 91.824219 3.484375 95.828125 7.355469 98.066406 C 11.226562 100.300781 15.851562 100.300781 19.726562 98.066406 L 83.792969 61.078125 C 87.664062 58.839844 89.976562 54.835938 89.976562 50.367188 C 89.976562 50.367188 89.976562 50.367188 89.976562 50.363281 C 89.976562 45.894531 87.664062 41.890625 83.792969 39.652344 L 19.726562 2.664062 C 15.851562 0.429688 11.230469 0.429688 7.355469 2.664062 C 3.484375 4.902344 1.171875 8.90625 1.171875 13.378906 " fill-opacity="1" fill-rule="nonzero"/></g></g></g></g><g clip-path="url(#6167e6ccdd)"><path fill="#0057ff" d="M 0 0 L 600.394531 0 L 600.394531 809.125 L 0 809.125 Z M 0 0 " fill-opacity="1" fill-rule="nonzero"/></g></svg>