<svg xmlns="http://www.w3.org/2000/svg" xmlns:xlink="http://www.w3.org/1999/xlink" width="1920" zoomAndPan="magnify" viewBox="0 0 1440 809.999993" height="1080" preserveAspectRatio="xMidYMid meet" version="1.0"><defs><clipPath id="dc4060edde"><path d="M 81 161.285156 L 702 161.285156 L 702 648.714844 L 81 648.714844 Z M 81 161.285156 " clip-rule="nonzero"/></clipPath><clipPath id="f46b97594c"><path d="M 119.25 161.285156 L 664.324219 161.285156 C 674.46875 161.285156 684.199219 165.3125 691.371094 172.488281 C 698.542969 179.660156 702.574219 189.390625 702.574219 199.535156 L 702.574219 610.464844 C 702.574219 620.609375 698.542969 630.339844 691.371094 637.511719 C 684.199219 644.6875 674.46875 648.714844 664.324219 648.714844 L 119.25 648.714844 C 109.105469 648.714844 99.375 644.6875 92.203125 637.511719 C 85.03125 630.339844 81 620.609375 81 610.464844 L 81 199.535156 C 81 189.390625 85.03125 179.660156 92.203125 172.488281 C 99.375 165.3125 109.105469 161.285156 119.25 161.285156 Z M 119.25 161.285156 " clip-rule="nonzero"/></clipPath><clipPath id="4669a55947"><path d="M 910.757812 60.390625 L 1112.539062 60.390625 L 1112.539062 262.175781 L 910.757812 262.175781 Z M 910.757812 60.390625 " clip-rule="nonzero"/></clipPath><clipPath id="26388e5891"><path d="M 949.007812 60.390625 L 1074.289062 60.390625 C 1084.433594 60.390625 1094.164062 64.421875 1101.335938 71.59375 C 1108.511719 78.769531 1112.539062 88.496094 1112.539062 98.640625 L 1112.539062 223.925781 C 1112.539062 234.070312 1108.511719 243.796875 1101.335938 250.972656 C 1094.164062 258.144531 1084.433594 262.175781 1074.289062 262.175781 L 949.007812 262.175781 C 938.863281 262.175781 929.132812 258.144531 921.960938 250.972656 C 914.785156 243.796875 910.757812 234.070312 910.757812 223.925781 L 910.757812 98.640625 C 910.757812 88.496094 914.785156 78.769531 921.960938 71.59375 C 929.132812 64.421875 938.863281 60.390625 949.007812 60.390625 Z M 949.007812 60.390625 " clip-rule="nonzero"/></clipPath><clipPath id="aeff71d0fc"><path d="M 910.757812 304.109375 L 1112.539062 304.109375 L 1112.539062 505.890625 L 910.757812 505.890625 Z M 910.757812 304.109375 " clip-rule="nonzero"/></clipPath><clipPath id="3c90c435d0"><path d="M 949.007812 304.109375 L 1074.289062 304.109375 C 1084.433594 304.109375 1094.164062 308.136719 1101.335938 315.3125 C 1108.511719 322.484375 1112.539062 332.214844 1112.539062 342.359375 L 1112.539062 467.640625 C 1112.539062 477.785156 1108.511719 487.515625 1101.335938 494.6875 C 1094.164062 501.863281 1084.433594 505.890625 1074.289062 505.890625 L 949.007812 505.890625 C 938.863281 505.890625 929.132812 501.863281 921.960938 494.6875 C 914.785156 487.515625 910.757812 477.785156 910.757812 467.640625 L 910.757812 342.359375 C 910.757812 332.214844 914.785156 322.484375 921.960938 315.3125 C 929.132812 308.136719 938.863281 304.109375 949.007812 304.109375 Z M 949.007812 304.109375 " clip-rule="nonzero"/></clipPath><clipPath id="960a762468"><path d="M 910.757812 547.890625 L 1112.539062 547.890625 L 1112.539062 749.675781 L 910.757812 749.675781 Z M 910.757812 547.890625 " clip-rule="nonzero"/></clipPath><clipPath id="04ef3e998e"><path d="M 949.007812 547.890625 L 1074.289062 547.890625 C 1084.433594 547.890625 1094.164062 551.921875 1101.335938 559.09375 C 1108.511719 566.269531 1112.539062 575.996094 1112.539062 586.140625 L 1112.539062 711.425781 C 1112.539062 721.570312 1108.511719 731.296875 1101.335938 738.472656 C 1094.164062 745.644531 1084.433594 749.675781 1074.289062 749.675781 L 949.007812 749.675781 C 938.863281 749.675781 929.132812 745.644531 921.960938 738.472656 C 914.785156 731.296875 910.757812 721.570312 910.757812 711.425781 L 910.757812 586.140625 C 910.757812 575.996094 914.785156 566.269531 921.960938 559.09375 C 929.132812 551.921875 938.863281 547.890625 949.007812 547.890625 Z M 949.007812 547.890625 " clip-rule="nonzero"/></clipPath></defs><g clip-path="url(#dc4060edde)"><g clip-path="url(#f46b97594c)"><path fill="#919191" d="M 81 161.285156 L 701.714844 161.285156 L 701.714844 648.714844 L 81 648.714844 Z M 81 161.285156 " fill-opacity="1" fill-rule="nonzero"/></g></g><g clip-path="url(#4669a55947)"><g clip-path="url(#26388e5891)"><path fill="#919191" d="M 910.757812 60.390625 L 1112.539062 60.390625 L 1112.539062 262.175781 L 910.757812 262.175781 Z M 910.757812 60.390625 " fill-opacity="1" fill-rule="nonzero"/></g></g><g clip-path="url(#aeff71d0fc)"><g clip-path="url(#3c90c435d0)"><path fill="#919191" d="M 910.757812 304.109375 L 1112.539062 304.109375 L 1112.539062 505.890625 L 910.757812 505.890625 Z M 910.757812 304.109375 " fill-opacity="1" fill-rule="nonzero"/></g></g><g clip-path="url(#960a762468)"><g clip-path="url(#04ef3e998e)"><path fill="#919191" d="M 910.757812 547.890625 L 1112.539062 547.890625 L 1112.539062 749.675781 L 910.757812 749.675781 Z M 910.757812 547.890625 " fill-opacity="1" fill-rule="nonzero"/></g></g></svg>