<svg xmlns="http://www.w3.org/2000/svg" xmlns:xlink="http://www.w3.org/1999/xlink" width="1920" zoomAndPan="magnify" viewBox="0 0 1440 809.999993" height="1080" preserveAspectRatio="xMidYMid meet" version="1.0"><defs><clipPath id="eaae2dcb0b"><path d="M 78.917969 451.113281 L 301.984375 451.113281 L 301.984375 674.183594 L 78.917969 674.183594 Z M 78.917969 451.113281 " clip-rule="nonzero"/></clipPath><clipPath id="dcaa286e6a"><path d="M 117.167969 451.113281 L 263.734375 451.113281 C 273.878906 451.113281 283.609375 455.144531 290.78125 462.316406 C 297.957031 469.488281 301.984375 479.21875 301.984375 489.363281 L 301.984375 635.933594 C 301.984375 646.078125 297.957031 655.804688 290.78125 662.980469 C 283.609375 670.152344 273.878906 674.183594 263.734375 674.183594 L 117.167969 674.183594 C 107.023438 674.183594 97.292969 670.152344 90.121094 662.980469 C 82.945312 655.804688 78.917969 646.078125 78.917969 635.933594 L 78.917969 489.363281 C 78.917969 479.21875 82.945312 469.488281 90.121094 462.316406 C 97.292969 455.144531 107.023438 451.113281 117.167969 451.113281 Z M 117.167969 451.113281 " clip-rule="nonzero"/></clipPath><clipPath id="00dc89441f"><path d="M 81 81 L 304.070312 81 L 304.070312 304.070312 L 81 304.070312 Z M 81 81 " clip-rule="nonzero"/></clipPath><clipPath id="995d5cd121"><path d="M 119.25 81 L 265.820312 81 C 275.964844 81 285.691406 85.03125 292.867188 92.203125 C 300.039062 99.375 304.070312 109.105469 304.070312 119.25 L 304.070312 265.820312 C 304.070312 275.964844 300.039062 285.691406 292.867188 292.867188 C 285.691406 300.039062 275.964844 304.070312 265.820312 304.070312 L 119.25 304.070312 C 109.105469 304.070312 99.375 300.039062 92.203125 292.867188 C 85.03125 285.691406 81 275.964844 81 265.820312 L 81 119.25 C 81 109.105469 85.03125 99.375 92.203125 92.203125 C 99.375 85.03125 109.105469 81 119.25 81 Z M 119.25 81 " clip-rule="nonzero"/></clipPath><clipPath id="ea315dc0c8"><path d="M 1138.015625 451.113281 L 1361.082031 451.113281 L 1361.082031 674.183594 L 1138.015625 674.183594 Z M 1138.015625 451.113281 " clip-rule="nonzero"/></clipPath><clipPath id="8acaafab7b"><path d="M 1176.265625 451.113281 L 1322.832031 451.113281 C 1332.976562 451.113281 1342.707031 455.144531 1349.878906 462.316406 C 1357.054688 469.488281 1361.082031 479.21875 1361.082031 489.363281 L 1361.082031 635.933594 C 1361.082031 646.078125 1357.054688 655.804688 1349.878906 662.980469 C 1342.707031 670.152344 1332.976562 674.183594 1322.832031 674.183594 L 1176.265625 674.183594 C 1166.121094 674.183594 1156.390625 670.152344 1149.21875 662.980469 C 1142.042969 655.804688 1138.015625 646.078125 1138.015625 635.933594 L 1138.015625 489.363281 C 1138.015625 479.21875 1142.042969 469.488281 1149.21875 462.316406 C 1156.390625 455.144531 1166.121094 451.113281 1176.265625 451.113281 Z M 1176.265625 451.113281 " clip-rule="nonzero"/></clipPath><clipPath id="f6ade7b47a"><path d="M 1138.015625 81 L 1361.082031 81 L 1361.082031 304.070312 L 1138.015625 304.070312 Z M 1138.015625 81 " clip-rule="nonzero"/></clipPath><clipPath id="e22d64b0d9"><path d="M 1176.265625 81 L 1322.832031 81 C 1332.976562 81 1342.707031 85.03125 1349.878906 92.203125 C 1357.054688 99.375 1361.082031 109.105469 1361.082031 119.25 L 1361.082031 265.820312 C 1361.082031 275.964844 1357.054688 285.691406 1349.878906 292.867188 C 1342.707031 300.039062 1332.976562 304.070312 1322.832031 304.070312 L 1176.265625 304.070312 C 1166.121094 304.070312 1156.390625 300.039062 1149.21875 292.867188 C 1142.042969 285.691406 1138.015625 275.964844 1138.015625 265.820312 L 1138.015625 119.25 C 1138.015625 109.105469 1142.042969 99.375 1149.21875 92.203125 C 1156.390625 85.03125 1166.121094 81 1176.265625 81 Z M 1176.265625 81 " clip-rule="nonzero"/></clipPath></defs><g clip-path="url(#eaae2dcb0b)"><g clip-path="url(#dcaa286e6a)"><path fill="#bd0ba2" d="M 78.917969 451.113281 L 301.984375 451.113281 L 301.984375 674.183594 L 78.917969 674.183594 Z M 78.917969 451.113281 " fill-opacity="1" fill-rule="nonzero"/></g></g><g clip-path="url(#00dc89441f)"><g clip-path="url(#995d5cd121)"><path fill="#bd0ba2" d="M 81 81 L 304.070312 81 L 304.070312 304.070312 L 81 304.070312 Z M 81 81 " fill-opacity="1" fill-rule="nonzero"/></g></g><g clip-path="url(#ea315dc0c8)"><g clip-path="url(#8acaafab7b)"><path fill="#bd0ba2" d="M 1138.015625 451.113281 L 1361.082031 451.113281 L 1361.082031 674.183594 L 1138.015625 674.183594 Z M 1138.015625 451.113281 " fill-opacity="1" fill-rule="nonzero"/></g></g><g clip-path="url(#f6ade7b47a)"><g clip-path="url(#e22d64b0d9)"><path fill="#bd0ba2" d="M 1138.015625 81 L 1361.082031 81 L 1361.082031 304.070312 L 1138.015625 304.070312 Z M 1138.015625 81 " fill-opacity="1" fill-rule="nonzero"/></g></g></svg>