<svg xmlns="http://www.w3.org/2000/svg" xmlns:xlink="http://www.w3.org/1999/xlink" width="1920" zoomAndPan="magnify" viewBox="0 0 1440 809.999993" height="1080" preserveAspectRatio="xMidYMid meet" version="1.0"><defs><clipPath id="6256aed469"><path d="M 78.917969 451.113281 L 301.984375 451.113281 L 301.984375 674.183594 L 78.917969 674.183594 Z M 78.917969 451.113281 " clip-rule="nonzero"/></clipPath><clipPath id="1ed8a77426"><path d="M 117.167969 451.113281 L 263.734375 451.113281 C 273.878906 451.113281 283.609375 455.144531 290.78125 462.316406 C 297.957031 469.488281 301.984375 479.21875 301.984375 489.363281 L 301.984375 635.933594 C 301.984375 646.078125 297.957031 655.804688 290.78125 662.980469 C 283.609375 670.152344 273.878906 674.183594 263.734375 674.183594 L 117.167969 674.183594 C 107.023438 674.183594 97.292969 670.152344 90.121094 662.980469 C 82.945312 655.804688 78.917969 646.078125 78.917969 635.933594 L 78.917969 489.363281 C 78.917969 479.21875 82.945312 469.488281 90.121094 462.316406 C 97.292969 455.144531 107.023438 451.113281 117.167969 451.113281 Z M 117.167969 451.113281 " clip-rule="nonzero"/></clipPath><clipPath id="b8a6d6160d"><path d="M 81 81 L 304.070312 81 L 304.070312 304.070312 L 81 304.070312 Z M 81 81 " clip-rule="nonzero"/></clipPath><clipPath id="2ff4266df3"><path d="M 119.25 81 L 265.820312 81 C 275.964844 81 285.691406 85.03125 292.867188 92.203125 C 300.039062 99.375 304.070312 109.105469 304.070312 119.25 L 304.070312 265.820312 C 304.070312 275.964844 300.039062 285.691406 292.867188 292.867188 C 285.691406 300.039062 275.964844 304.070312 265.820312 304.070312 L 119.25 304.070312 C 109.105469 304.070312 99.375 300.039062 92.203125 292.867188 C 85.03125 285.691406 81 275.964844 81 265.820312 L 81 119.25 C 81 109.105469 85.03125 99.375 92.203125 92.203125 C 99.375 85.03125 109.105469 81 119.25 81 Z M 119.25 81 " clip-rule="nonzero"/></clipPath><clipPath id="8703063292"><path d="M 720 451.113281 L 1440 451.113281 L 1440 810 L 720 810 Z M 720 451.113281 " clip-rule="nonzero"/></clipPath><clipPath id="ed5370d653"><path d="M 1230.128906 1845.28125 C 1293.796875 1892.210938 1373.128906 1915.535156 1452.246094 1915.535156 C 1531.371094 1915.535156 1610.707031 1892.203125 1674.367188 1845.28125 C 1745.207031 1793.0625 2010.652344 1602.019531 2178.558594 1542.980469 C 2182.117188 1541.726562 2184.496094 1538.367188 2184.496094 1534.597656 L 2184.496094 832.125 C 2184.496094 828.355469 2182.117188 824.996094 2178.558594 823.746094 C 2035.152344 773.320312 1860.078125 651.558594 1739.53125 567.65625 C 1682.28125 527.808594 1636.46875 495.871094 1613.230469 485.46875 C 1562.046875 462.566406 1507.144531 451.113281 1452.25 451.113281 C 1397.351562 451.113281 1342.449219 462.566406 1291.269531 485.46875 C 1264.132812 497.613281 1215.617188 531.625 1156.078125 573.289062 C 1037.132812 656.53125 870.929688 772.761719 725.9375 823.746094 C 722.378906 824.996094 720 828.355469 720 832.125 L 720 1534.597656 C 720 1538.367188 722.378906 1541.726562 725.9375 1542.980469 C 893.847656 1602.019531 1159.289062 1793.0625 1230.128906 1845.28125 Z M 1230.128906 1845.28125 " clip-rule="nonzero"/></clipPath><clipPath id="8de2d0c839"><path d="M 728.03125 459.144531 L 1440 459.144531 L 1440 810 L 728.03125 810 Z M 728.03125 459.144531 " clip-rule="nonzero"/></clipPath><clipPath id="49b33e275e"><path d="M 1294.898438 493.578125 C 1217.074219 528.410156 949.296875 754.625 728.882812 832.125 L 728.882812 1534.597656 C 898.304688 1594.167969 1164.878906 1786.144531 1235.402344 1838.128906 C 1359.367188 1929.503906 1545.167969 1929.476562 1669.097656 1838.128906 C 1739.621094 1786.144531 2006.195312 1594.167969 2175.613281 1534.597656 L 2175.613281 832.125 C 1961.257812 756.753906 1678.175781 524.269531 1609.597656 493.578125 C 1509.546875 448.800781 1394.945312 448.804688 1294.898438 493.578125 Z M 1294.898438 493.578125 " clip-rule="nonzero"/></clipPath><clipPath id="82f9fdc310"><path d="M 1138.015625 451.113281 L 1361.082031 451.113281 L 1361.082031 674.183594 L 1138.015625 674.183594 Z M 1138.015625 451.113281 " clip-rule="nonzero"/></clipPath><clipPath id="5ee36c1d76"><path d="M 1176.265625 451.113281 L 1322.832031 451.113281 C 1332.976562 451.113281 1342.707031 455.144531 1349.878906 462.316406 C 1357.054688 469.488281 1361.082031 479.21875 1361.082031 489.363281 L 1361.082031 635.933594 C 1361.082031 646.078125 1357.054688 655.804688 1349.878906 662.980469 C 1342.707031 670.152344 1332.976562 674.183594 1322.832031 674.183594 L 1176.265625 674.183594 C 1166.121094 674.183594 1156.390625 670.152344 1149.21875 662.980469 C 1142.042969 655.804688 1138.015625 646.078125 1138.015625 635.933594 L 1138.015625 489.363281 C 1138.015625 479.21875 1142.042969 469.488281 1149.21875 462.316406 C 1156.390625 455.144531 1166.121094 451.113281 1176.265625 451.113281 Z M 1176.265625 451.113281 " clip-rule="nonzero"/></clipPath><clipPath id="a1b0e95c1f"><path d="M 1138.015625 81 L 1361.082031 81 L 1361.082031 304.070312 L 1138.015625 304.070312 Z M 1138.015625 81 " clip-rule="nonzero"/></clipPath><clipPath id="a603a0a424"><path d="M 1176.265625 81 L 1322.832031 81 C 1332.976562 81 1342.707031 85.03125 1349.878906 92.203125 C 1357.054688 99.375 1361.082031 109.105469 1361.082031 119.25 L 1361.082031 265.820312 C 1361.082031 275.964844 1357.054688 285.691406 1349.878906 292.867188 C 1342.707031 300.039062 1332.976562 304.070312 1322.832031 304.070312 L 1176.265625 304.070312 C 1166.121094 304.070312 1156.390625 300.039062 1149.21875 292.867188 C 1142.042969 285.691406 1138.015625 275.964844 1138.015625 265.820312 L 1138.015625 119.25 C 1138.015625 109.105469 1142.042969 99.375 1149.21875 92.203125 C 1156.390625 85.03125 1166.121094 81 1176.265625 81 Z M 1176.265625 81 " clip-rule="nonzero"/></clipPath></defs><g clip-path="url(#6256aed469)"><g clip-path="url(#1ed8a77426)"><path fill="#bd0ba2" d="M 78.917969 451.113281 L 301.984375 451.113281 L 301.984375 674.183594 L 78.917969 674.183594 Z M 78.917969 451.113281 " fill-opacity="1" fill-rule="nonzero"/></g></g><g clip-path="url(#b8a6d6160d)"><g clip-path="url(#2ff4266df3)"><path fill="#bd0ba2" d="M 81 81 L 304.070312 81 L 304.070312 304.070312 L 81 304.070312 Z M 81 81 " fill-opacity="1" fill-rule="nonzero"/></g></g><g clip-path="url(#8703063292)"><g clip-path="url(#ed5370d653)"><path fill="#000000" d="M 720 451.113281 L 2184.421875 451.113281 L 2184.421875 1915.535156 L 720 1915.535156 Z M 720 451.113281 " fill-opacity="1" fill-rule="nonzero"/></g></g><g clip-path="url(#8de2d0c839)"><g clip-path="url(#49b33e275e)"><path fill="#171810" d="M 720 451.113281 L 2184.421875 451.113281 L 2184.421875 1915.535156 L 720 1915.535156 Z M 720 451.113281 " fill-opacity="1" fill-rule="nonzero"/></g></g><g clip-path="url(#82f9fdc310)"><g clip-path="url(#5ee36c1d76)"><path fill="#bd0ba2" d="M 1138.015625 451.113281 L 1361.082031 451.113281 L 1361.082031 674.183594 L 1138.015625 674.183594 Z M 1138.015625 451.113281 " fill-opacity="1" fill-rule="nonzero"/></g></g><g clip-path="url(#a1b0e95c1f)"><g clip-path="url(#a603a0a424)"><path fill="#bd0ba2" d="M 1138.015625 81 L 1361.082031 81 L 1361.082031 304.070312 L 1138.015625 304.070312 Z M 1138.015625 81 " fill-opacity="1" fill-rule="nonzero"/></g></g></svg>