<svg xmlns="http://www.w3.org/2000/svg" xmlns:xlink="http://www.w3.org/1999/xlink" width="500" zoomAndPan="magnify" viewBox="0 0 375 374.999991" height="500" preserveAspectRatio="xMidYMid meet" version="1.0"><defs><clipPath id="69eefd1826"><path d="M 95.472656 95.472656 L 279.222656 95.472656 L 279.222656 279.222656 L 95.472656 279.222656 Z M 95.472656 95.472656 " clip-rule="nonzero"/></clipPath><clipPath id="78d21aa785"><path d="M 323.699219 0 L 375 0 L 375 27.058594 L 323.699219 27.058594 Z M 323.699219 0 " clip-rule="nonzero"/></clipPath><clipPath id="f5c49938e4"><path d="M 340.949219 -22.253906 L 359.046875 -22.253906 C 363.621094 -22.253906 368.007812 -20.4375 371.242188 -17.203125 C 374.476562 -13.96875 376.296875 -9.582031 376.296875 -5.003906 L 376.296875 9.808594 C 376.296875 14.386719 374.476562 18.773438 371.242188 22.007812 C 368.007812 25.242188 363.621094 27.058594 359.046875 27.058594 L 340.949219 27.058594 C 336.371094 27.058594 331.984375 25.242188 328.75 22.007812 C 325.515625 18.773438 323.699219 14.386719 323.699219 9.808594 L 323.699219 -5.003906 C 323.699219 -9.582031 325.515625 -13.96875 328.75 -17.203125 C 331.984375 -20.4375 336.371094 -22.253906 340.949219 -22.253906 Z M 340.949219 -22.253906 " clip-rule="nonzero"/></clipPath></defs><rect x="-37.5" width="450" fill="#ffffff" y="-37.499999" height="449.999989" fill-opacity="1"/><rect x="-37.5" width="450" fill="#d9d9d9" y="-37.499999" height="449.999989" fill-opacity="1"/><g clip-path="url(#69eefd1826)"><path fill="#000000" d="M 187.269531 95.417969 C 136.542969 95.417969 95.417969 136.542969 95.417969 187.269531 C 95.417969 237.996094 136.542969 279.117188 187.269531 279.117188 C 237.996094 279.117188 279.117188 237.996094 279.117188 187.269531 C 279.117188 136.542969 237.996094 95.417969 187.269531 95.417969 Z M 187.265625 131.636719 C 202.59375 131.636719 215.023438 144.0625 215.023438 159.390625 C 215.023438 174.71875 202.597656 187.144531 187.265625 187.144531 C 171.9375 187.144531 159.511719 174.71875 159.511719 159.390625 C 159.511719 144.0625 171.9375 131.636719 187.265625 131.636719 Z M 187.53125 236.867188 L 146.769531 236.867188 C 146.769531 209.515625 161.652344 199.777344 171.414062 191.039062 C 176.140625 193.578125 181.535156 195.035156 187.265625 195.078125 C 192.996094 195.035156 198.390625 193.578125 203.117188 191.039062 C 212.878906 199.777344 227.761719 209.515625 227.761719 236.867188 Z M 187.53125 236.867188 " fill-opacity="1" fill-rule="nonzero"/></g><g clip-path="url(#78d21aa785)"><g clip-path="url(#f5c49938e4)"><path fill="#d9d9d9" d="M 323.699219 -22.253906 L 376.289062 -22.253906 L 376.289062 27.058594 L 323.699219 27.058594 Z M 323.699219 -22.253906 " fill-opacity="1" fill-rule="nonzero"/></g></g></svg>