<svg xmlns="http://www.w3.org/2000/svg" xmlns:xlink="http://www.w3.org/1999/xlink" width="500" zoomAndPan="magnify" viewBox="0 0 375 374.999991" height="500" preserveAspectRatio="xMidYMid meet" version="1.0"><defs><clipPath id="502107739e"><path d="M 131.25 131.25 L 243.75 131.25 L 243.75 243.75 L 131.25 243.75 Z M 131.25 131.25 " clip-rule="nonzero"/></clipPath><clipPath id="b8bf2169a1"><path d="M 148.5 131.25 L 226.5 131.25 C 231.074219 131.25 235.460938 133.066406 238.699219 136.300781 C 241.933594 139.539062 243.75 143.925781 243.75 148.5 L 243.75 226.5 C 243.75 231.074219 241.933594 235.460938 238.699219 238.699219 C 235.460938 241.933594 231.074219 243.75 226.5 243.75 L 148.5 243.75 C 143.925781 243.75 139.539062 241.933594 136.300781 238.699219 C 133.066406 235.460938 131.25 231.074219 131.25 226.5 L 131.25 148.5 C 131.25 143.925781 133.066406 139.539062 136.300781 136.300781 C 139.539062 133.066406 143.925781 131.25 148.5 131.25 Z M 148.5 131.25 " clip-rule="nonzero"/></clipPath><clipPath id="c979decff6"><path d="M 95.472656 99.015625 L 279.222656 99.015625 L 279.222656 282.765625 L 95.472656 282.765625 Z M 95.472656 99.015625 " clip-rule="nonzero"/></clipPath></defs><g clip-path="url(#502107739e)"><g clip-path="url(#b8bf2169a1)"><path fill="#222222" d="M 131.25 131.25 L 243.75 131.25 L 243.75 243.75 L 131.25 243.75 Z M 131.25 131.25 " fill-opacity="1" fill-rule="nonzero"/></g></g><g clip-path="url(#c979decff6)"><path fill="#000000" d="M 187.269531 98.960938 C 136.542969 98.960938 95.417969 140.082031 95.417969 190.808594 C 95.417969 241.539062 136.542969 282.660156 187.269531 282.660156 C 237.996094 282.660156 279.117188 241.539062 279.117188 190.808594 C 279.117188 140.082031 237.996094 98.960938 187.269531 98.960938 Z M 187.265625 135.179688 C 202.59375 135.179688 215.023438 147.605469 215.023438 162.933594 C 215.023438 178.261719 202.597656 190.6875 187.265625 190.6875 C 171.9375 190.6875 159.511719 178.261719 159.511719 162.933594 C 159.511719 147.605469 171.9375 135.179688 187.265625 135.179688 Z M 187.53125 240.410156 L 146.769531 240.410156 C 146.769531 213.054688 161.652344 203.320312 171.414062 194.578125 C 176.140625 197.121094 181.535156 198.578125 187.265625 198.621094 C 192.996094 198.578125 198.390625 197.121094 203.117188 194.578125 C 212.878906 203.320312 227.761719 213.058594 227.761719 240.410156 Z M 187.53125 240.410156 " fill-opacity="1" fill-rule="nonzero"/></g></svg>